<svg width="328" height="246" viewBox="0 0 328 246" fill="none" xmlns="http://www.w3.org/2000/svg">
<rect width="328" height="246" fill="white"/>
<rect width="328" height="246" fill="#E4E6E9"/>
<g opacity="0.4">
<g opacity="0.4" filter="url(#filter0_d_72_165)">
<path opacity="0.4" d="M108.488 233.755L108.434 230.525L108.115 227.962L107.417 226.271L106.03 224.17L105.39 223.5L105.443 221.859L102.987 219.502L102.134 219.45L101.436 218.271L100.369 216.888L99.6213 216.016L99.1415 215.709L98.8212 213.146L98.4481 212.428L98.9818 211.557L100.209 211.404L100.369 210.789L98.501 210.634L96.3142 208.687L96.3671 207.921L96.9018 207.613L97.649 207.664L97.7548 207.049L91.9925 199.617L90.4451 196.953V195.774L89.1113 193.416L88.8978 190.648L88.4718 190.341L88.7911 189.726L90.2327 189.88L90.4491 189.841L90.4002 190.303L94.4745 190.695L99.3041 194.539L103.97 197.721L108.214 197.019L109.57 197.391L110.027 196.557L114.609 195.003L115.745 195.55L115.886 197.581L118.138 198.798V200.391L115.296 201.828L116.362 204.9L118.351 207.104L119.785 208.023L119.547 209.397L120.109 211.558L119.473 214.003L122.039 215.764L125.609 215.236L128.801 219.444L130.253 220.971L130.301 222.089L129.726 222.48L128.072 224.121L126.898 225.25L125.83 227.402L124.334 229.709L123.746 230.067L121.398 230.17L119.744 230.58L118.89 231.861L118.303 233.347L118.196 234.018L108.488 233.755ZM213.926 233.19L212.218 231.447L209.977 230.884L208.27 230.474L207.897 228.373L209.177 226.374L210.138 225.093L209.924 224.222L208.964 223.812L208.75 222.532L209.711 221.967L209.445 220.994L207.63 218.636L207.311 217.457L209.071 215.924L208.431 215.157L208.058 213.824L206.938 212.543L207.363 210.288L207.684 209.468L205.816 208.084L204.962 207.982L202.774 211.364L202.401 213.107L198.827 215.772L197.385 216.388L196.424 216.439L195.677 215.567L194.717 215.875L194.77 216.9L193.864 217.72L188.795 214.901L186.446 211.62L184.899 208.187L184.526 206.906L180.096 206.752L179.883 207.418L180.791 208.597L180.897 209.571L179.563 211.104L177.908 211.309L174.441 214.076L173.925 214.425V212.824L174.21 209.803L174.054 206.328L171.08 204.186L169.773 201.801L168.998 197.19L169.226 194.116V190.345L169.904 188.391L170.223 183.967L170.094 180.763L171.679 179.931L171.48 177.78L169.142 175.835L167.537 174.536L168.874 172.976L170.728 173.091L173.629 173.378L176.322 172.616L180.603 168.504L183.46 167.546L185.629 165.313L186.496 163.531H187.854L189.165 161.642L191.075 159.412L192.895 158.319L194.486 159.439L195.571 164.135L197.726 169.534L199.86 175.411L203.284 182.953L205.408 188.12L206.681 192.248L210.173 192.088L212.428 191.531L214.545 197.632L216.74 200.577L220.619 205.023L223.268 205.472L226.653 205.481L231.498 204.37L235.788 202.812L238.425 200.842L239.223 200.08L241.318 200.584L243.8 199.838L243.999 199.767L243.761 202.737L246.056 204.062L247.018 206.17L248.688 207.774L249.686 211.483L251.174 212.756L252.552 213.417V213.454L252.445 215.095L251.805 216.119L249.67 218.067L249.029 218.221V219.194L247.802 220.632L247.643 224.219L246.789 225.552L244.921 225.655L243.054 228.422L240.92 228.627L239.423 227.704L235.533 227.807L235.639 229.754L237.293 230.83L236.92 231.65L234.786 233.547L217.177 233.7L213.926 233.19ZM137.836 232.575L137.088 231.755L137.195 229.141L134.848 226.834L131.966 224.323L131.639 223.377L131.513 220.469L129.817 218.687L126.196 213.904L122.366 214.469L120.941 213.491L121.439 211.562L120.863 209.349L121.194 207.443L119.215 206.175L117.505 204.28L116.863 202.432L119.427 201.134V198.08L117.126 196.835L116.982 194.765L114.704 193.671L110.912 194.957L112.331 192.369L112.425 192.635L116.327 191.355L119.555 190.086L121.786 188.211L125.055 187.556L128.892 186.672L130.129 184.446L130.913 183.617L132.022 185.428L135.265 186.363L138.082 185.793L140.401 185.654L143.137 184.734L148.434 186.207H151.868V184.698L153.204 183.873L153.953 184.376L153.705 186.047L155.038 190.45L155.508 191.689L154.701 193.085L161.085 199.072L165.498 198.78L167.91 198.45L168.538 202.187L170.077 204.995L172.796 206.954L172.923 209.766L172.642 212.731V215.085L171.345 215.246L169.749 215.451L169.695 216.889L168.628 218.169L166.601 219.963L165.262 221.609L164.835 222.993L163.769 223.505L161.047 223.864L158.007 224.735L157.209 225.555L157.049 227.246L156.515 228.425L156.088 229.192L153.58 229.293L152.513 230.369L150.965 230.574H148.03L147.017 230.112L145.79 230.83L143.442 231.445L143.229 232.01L141.68 231.959L140.56 232.266L139.867 233.086L137.836 232.575ZM267.552 213.56L265.204 211.356L262.75 210.589L259.388 210.487L256.187 210.64H254.638L252.664 211.973L252.656 212.093L251.906 211.732L250.834 210.817L249.843 207.146L248.097 205.469L247.067 203.21L245.097 202.074L245.428 197.939L243.383 198.676L241.278 199.309L238.824 198.719L237.6 199.895L235.145 201.727L231.146 203.185L226.563 204.251H223.423L221.289 203.89L217.756 199.843L215.692 197.064L213.255 190.045L210.036 190.858L207.617 190.969L206.619 187.741L204.458 182.476L201.052 174.98L198.919 169.107L196.803 163.82L195.622 158.718L193.971 157.555L195.524 155.665L198.622 152.824L200.418 150.836L202.661 149.878L206.551 150.651L210.48 151.864L215.176 153.504L220.763 154.584L223.612 157.451L228.096 160.384L229.912 161.726L231.216 162.972L230.967 164.409L231.979 169.684L232.567 173.638L234.615 176.815L238.146 177.846L243.669 179.206L254.382 182.32L260.16 186.284L263.652 192.046L267.955 198.111L270.498 201.502L273.249 206.095L274.335 206.877L274.325 207.147L271.977 209.197L270.381 209.658L269.682 211.862L269.202 212.835L268.508 213.553L267.552 213.56ZM276.356 205.257L275.235 204.13L274.381 204.436V205.376L274.231 205.268L271.593 200.867L269.006 197.412L264.75 191.415L261.136 185.443L254.961 181.208L244.02 178.027L238.499 176.669L235.457 175.778L233.804 173.218L233.25 169.494L232.274 164.406L232.46 163.332L235.702 162.986L239.959 164.074L243.768 163.793L249.013 162.406L252.205 160.815L254.266 158.967L256.602 158.547L258.536 156.118L259.896 155.247L261.231 151.97L265.331 145.316L266.628 142.428L270.441 144.503L271.373 145.957L270.997 148.606L268.409 152.333V155.094L272.047 156.764L278.332 158.962L284.921 161.656L288.014 164.325L287.195 164.563L287.461 165.896L286.288 166.716L285.38 169.687L286.079 170.968L286.398 171.891L286.505 172.967L289.653 174.404L292.107 173.687L292.854 172.56L293.553 171.739L295.9 173.636L296.488 174.916L297.395 175.274L297.876 174.508L298.674 174.405L299.634 176.251L300.595 176.917L301.021 178.557L300.487 179.019L300.381 180.659L299.954 181.069L299.901 184.451L295.686 187.936L295.526 189.218L294.299 190.447L292.911 190.703L292.698 191.984L291.9 193.517L290.992 195.158L290.458 196.234L285.122 200.077L283.574 200.128L279.783 198.13L278.396 199.001L278.503 201.256L280.263 202.64L282.238 202.998L283.358 204.279L283.092 204.792L280.423 205.356L279.197 205.51L276.356 205.257ZM48.1915 201.874L47.0711 200.849L46.273 200.285L46.5933 199.311L47.127 199.363L47.5001 197.829L48.2474 196.907L49.9024 196.6L50.1688 195.524L50.0082 193.268L49.6889 191.474L49.8485 190.859L51.9296 189.731L52.7836 189.065L52.4634 187.835L51.0757 187.016L49.8485 186.657L49.3677 187.016L48.3012 187.271L47.554 186.81L46.0057 185.477L46.1124 184.298L45.4211 183.322L44.8873 182.091L45.1008 180.758L45.6884 179.734L47.3954 179.785L48.3032 179.272L49.3168 179.067L49.6899 178.042L50.5439 177.068L51.771 175.89L52.0374 174.558L52.2498 172.303L53.6395 171.61L56.81 171.853L57.8575 172.036L57.9782 173.543L59.9665 175.747L61.7693 177.48L63.9032 176.285L65.8445 174.719L66.9889 173.365L68.4404 172.603L69.7652 171.48L71.8533 171.747L73.3927 170.712L74.9888 170.275L76.4015 171.225L77.9668 170.849L79.7266 173.245L82.0022 172.251L81.5233 173.629L82.6047 175.497L84.2199 175.153L86.3967 175.57L88.3701 174.88L89.4485 172.81L95.3265 165.955L98.8771 167.835L101.757 169.152L103.932 171.364L104.062 173.977V178.113L104.209 180.521L105.67 184.588L107.274 188.51L109.74 191.323L111.219 191.759L108.93 195.937L108.294 195.761L104.285 196.426L100.11 193.58L94.9983 189.512L91.4637 189.172L91.5206 188.597L90.9869 188.443L90.7205 188.854H90.0221L89.3817 188.598L89.3288 186.906L86.5534 185.266L85.6465 185.01L83.5655 186.496L81.9693 187.214L80.8489 188.701L79.1949 190.597L78.6611 191.363L77.2734 191.516L76.5262 192.029V193.003L74.3384 194.797L71.2976 194.489L70.71 196.079L70.8167 198.283L69.7493 199.154L69.9627 199.92L70.9235 200.279L70.6561 201.355L68.4155 201.252L66.6018 199.253L64.9477 199.048L63.8274 199.509L62.9195 199.407L62.6531 199.919L61.2654 200.123L60.6249 199.15L59.4507 198.585L58.917 198.381L56.9427 199.57L56.3561 200.185H55.0751L54.3279 199.313L53.3143 199.467L53.1008 200.133H52.2468L51.7131 199.262L50.9659 199.518L50.3783 200.696L50.2725 201.261L49.3118 202.027L48.1915 201.874ZM156.295 192.867L156.91 191.802L156.254 190.077L155.012 185.968L155.332 183.812L153.237 182.403L150.589 184.036V184.988H148.618L143.101 183.455L140.145 184.449L137.957 184.581L135.322 185.107L132.873 184.402L131.137 181.566L129.128 183.688L128.031 185.618L124.773 186.369L121.193 187.086L118.872 189.029L115.879 190.207L112.83 191.205L115.342 187.707L118.911 182.436L124.508 180.92L125.914 178.07L127.231 173.194L128.495 169.011L129.662 166.769L132.156 167.368L135.454 166.648L139.296 165.69L143.403 164.331L144.422 164.222L156.746 170.275L159.873 172.186L162.934 173.889L163.872 173.246L165.616 174.587L168.309 176.769L170.249 178.383L170.329 179.238L168.785 180.047L168.942 183.95L168.666 188.071L167.949 190.139V194.044L167.711 197.236L165.39 197.554L161.573 197.807L156.295 192.867ZM110.475 190.257L108.388 187.876L106.87 184.168L105.473 180.284L105.338 178.08V173.95L105.184 170.853L102.52 168.143L99.4577 166.743L95.6198 164.71L95.963 161.857L94.9345 159.598L94.688 157.821L95.5231 156.216L96.7931 155.363L99.2792 153.957L101.461 151.562L101.943 148.628L100.032 143.828L98.1578 140.218L95.5101 137.223L95.4702 137.254L94.0416 134.635L93.435 133.118L93.8929 133.073L95.7785 135.277L98.9859 136.398L103.874 139.885L112.853 146.762L114.016 149.274L116.104 150.37L118.218 149.065L124.058 149.831L124.911 150.534L126.983 151.622L129.61 151.902L132.221 152.655L135.53 156.363L140.534 161.529L138.405 162.181L134.445 163.132L128.469 164.341L128.654 165.946L127.316 168.517L125.988 172.876L124.723 177.603L123.593 179.893L118.092 181.383L114.272 187.03L111.693 190.622L110.475 190.257ZM60.9153 174.926L59.2193 173.045L59.0557 170.998L57.0035 170.639L53.3821 170.359L53.3432 170.829L53.0439 170.715L52.7776 169.639L53.1507 168.512L53.8979 168.563L53.6845 167.03L53.3652 166.466L52.7237 166.209V164.826L53.3113 164.261L53.9518 163.083L54.2182 160.674L54.4855 158.521L55.0192 157.24L56.0329 156.369L55.98 154.063L55.0721 153.653L54.0586 153.192L53.5248 152.521L53.3113 151.547L51.7151 149.498L51.6672 147.254L51.7121 147.286L54.273 144.006L55.5899 141.898L56.5945 139.296L56.7502 139.116L57.0085 139.404L57.3477 140.818L56.7611 141.943L59.1105 143.331L60.2987 143.906L60.6559 145.737V148.019L61.9957 150.45L63.2647 153.429L65.0894 156.466L83.0926 153.727L83.4278 150.03L83.0288 147.58L83.8538 146.259V143.436L82.0421 141.025L82.4152 138.996L83.1016 136.888L83.6263 135.794L86.279 137.456L89.3357 139.072L92.9432 138.785L94.8856 138.414L97.0484 140.837L98.8492 144.296L100.626 148.761L100.254 151.02L98.4521 152.999L96.1216 154.315L94.5254 155.388L93.3692 157.609L93.6914 159.933L94.6551 162.047L94.2701 165.255L90.9778 169.08L88.417 172.087L87.4582 173.895L86.301 174.3L84.206 173.898L83.2602 174.1L82.917 173.508L84.1461 169.963L80.1616 171.702L78.5065 169.45L76.6569 169.895L75.2233 168.932L72.835 169.587L71.5281 170.465L69.3482 170.186L67.761 171.557L66.1498 172.402L64.9696 173.819L63.2108 175.249L61.9777 175.94L60.9153 174.926ZM167.993 164.759L163.827 163.492L159.849 161.92L156.3 160.65L155.373 160.013L153.577 159.144L152.324 158.648L150.528 158.115L149.488 157.337L148.568 154.874L147.979 152.396L145.372 148.935L144.399 148.575L146.387 148.479L147.675 147.629L150.774 144.393L152.579 142.015L153.394 139.864L154.458 139.16L156.453 136.397L156.194 135.067L155.912 133.376L155.662 131.518L156.609 130.392L158.153 131.343L159.193 132.34L160.452 134.257L161.905 132.761L163.737 132.154L165.558 132.038L166.571 132.733L169.45 132.379L174.226 133.929L175.658 135.245L176.691 137.764H178.92L181.075 136.693L183.379 135.975L184.992 136.905L185.191 138.622L186.372 140.059L187.31 140.909L187.377 143.009L188.235 145.235L190.35 145.852L192.146 145.387L193.392 145.962L191.895 148.005L190.099 151.177L187.075 152.662L185.41 153.885L183.269 156.147L182.389 157.968L180.049 159.254L175.716 161.914L172.536 163.815L170.366 164.888L167.993 164.759ZM285.614 160.606L278.795 157.821L272.564 155.644L269.683 154.321V152.708L272.218 149.055L272.697 145.69L271.353 143.59L267.13 141.29L271.466 131.612L275.781 124.528L281.243 121.118L283.206 120.74L286.677 120.607L290.695 120.894L292.439 119.829L295.444 117.496L298.653 115.755L302.064 114.189L303.819 111.658L306.381 109.55L306.875 109.726L307.248 110.135L308.316 109.52L309.596 108.854L310.716 109.621L310.128 110.594L311.196 113.413L312.85 116.231L313.864 118.333L314.398 119.666L313.971 121.409L314.185 122.942L315.039 124.172L315.732 125.864V127.76L315.786 130.322L315.839 131.45L318.027 132.731L318.453 134.064L317.812 134.68L316.799 134.936L316.1 135.91L316.207 137.139L316.634 138.472V139.143L314.926 138.169L313.806 137.554L311.457 137.963L311.084 138.681L310.818 139.448L308.096 139.088L307.349 139.345L304.521 139.754L303.08 140.164L302.814 139.398L301.853 139.45L298.76 143.037L297.693 144.831L297.267 145.292L297.427 146.317L298.014 146.573L297.694 147.547L297.107 147.957L296.734 148.366L296.947 149.237L296.521 150.314L295.453 150.723L295.08 151.646L295.027 153.083L291.826 156.157L291.079 160.31L288.945 161.843V163.48L285.614 160.606ZM64.4389 152.933L63.1749 149.962L61.9418 147.72V145.686L61.443 143.085L59.76 142.277L58.4342 141.494L58.7015 140.98L58.1877 138.84L56.7382 137.216L55.4702 138.677L54.4576 141.319L53.2245 143.293L51.5734 145.407L51.4976 144.422L44.9871 144.524L43.5994 144.012L42.5858 143.499L42.052 142.577L41.7857 142.167L40.2893 142.219L39.0632 142.986L38.1024 143.656L36.9821 144.681L35.9685 145.808L35.8079 146.372L32.1266 148.833L31.539 148.73L31.0582 146.834L30.3648 146.067L30.5773 144.939L31.2188 144.581L31.0582 143.966L30.2042 143.71L29.457 143.454L29.2444 141.921L26.6825 140.127L20.9731 139.922L17.8256 137.411L15.1569 137.462L9.50635 131.659L9.61309 130.941L10.9469 129.968L12.2798 129.25L13.6675 129.097L15.5351 129.302L16.1765 128.737L17.4565 126.585L18.2546 125.819L19.2153 126.485L19.5884 126.997L19.4288 124.588L18.5748 122.436L17.9872 121.669L18.1468 120.747L18.8452 120.132L19.8059 120.593L20.604 120.696L21.7243 119.62L22.6851 119.466L22.3119 118.85L21.6136 118.184L22.2012 117.057L22.7888 117.006L22.8417 115.827L25.0823 114.648L26.5788 113.522L27.6992 112.701L28.7666 111.728L29.4071 110.908L30.1054 111.317L30.2112 111.932L30.4785 112.496L30.5843 110.344L31.6518 108.704L32.3501 107.627L32.4559 106.756L33.5762 105.223L34.6965 103.84L35.6573 103.429L35.8707 101.687L35.8168 100.25L35.2831 99.1739L34.7464 98.092L33.5722 96.0941L33.7328 92.9683L34.3194 92.4039L34.9609 91.9938L35.2802 91.4812L35.2991 91.2464L37.7882 93.0939L40.8908 97.1549L45.3023 102.212L50.2157 106.249L57.232 111.065L65.1133 114.382L69.0569 117.087L74.7344 120.768L82.6916 126.23L88.3511 130.305L92.2119 133.484L92.8654 135.113L94.0626 137.317L92.8026 137.559L89.6161 137.814L86.9614 136.411L83.0876 133.984L81.9234 136.406L81.1831 138.669L80.6893 141.324L82.5768 143.835V145.925L81.6949 147.338L82.1459 150.08L81.9114 152.668L65.7637 155.123L64.4389 152.933ZM232.858 152.296L228.014 150.375L225.955 149.365L227.577 145.711L232.965 134.696L236.006 128.597L236.047 128.514L236.347 126.667L235.427 126.18L235.997 125.084L238.57 120.449L239.914 117.777L241.336 118.024L245.12 118.439L249.384 118.284L253.856 117.486L256.163 116.188L257.298 115.485L257.469 115.518L258.43 116.338L258.697 117.619L258.323 119.26L257.843 121.617L257.253 123.869L256.88 125.612L256.934 126.483L258.321 127.406L259.282 128.328L259.976 128.892L261.95 127.303L263.123 126.536L264.243 125.77L265.577 126.385L266.342 127.433L266.607 127.562L265.525 129.118L263.851 133.717L263.164 136.198L262.096 138.064L260.61 139.105L257.844 142.317L254.682 145.708L251.023 148.391L248.141 152.366L244.423 153.747L241.331 153.842L239.392 153.89L232.858 152.296ZM223.181 147.913L220.282 147.217L214.204 145.18L208.89 143.275L203.812 141.254L201.617 141.109L196.919 141.182L195.172 142.86L194.055 144.916L192.273 144.079L190.372 144.57L189.216 144.232L188.651 142.767L188.575 140.356L188.066 139.9L190.66 137.524L192.084 135.889L193.78 134.684L194.539 133.226L194.873 130.528L196.469 129.486L198.441 129.406L199.26 126.97L200.969 124.645L201.483 123.063L199.805 121.744L199.63 117.829L201.914 119.082L204.235 119.434L206.749 118.447L209.068 117.138L211.245 116.851H213.603L218.15 119.181L220.489 121.938L224.965 124.454L230.601 126.585L233.738 126.665L233.725 126.689L234.939 127.331L234.808 128.148L231.805 134.169L226.406 145.209L224.82 148.783L223.181 147.913ZM141.587 147.529L141.145 147.366L141.135 147.392L138.981 143.741L137.633 142.112L135.527 141.774L134.347 142.158L131.902 140.983L129.985 139.878L126.883 139.951L124.337 140.326L121.754 140.959L119.435 140.216L114.989 137.214L111.502 134.549L107.874 132.291L104.929 129.596L101.4 126.896L97.6091 124.489L93.6405 121.698L90.6975 119.494L86.4366 116.63L82.5878 113.96L82.1109 113.639L84.3716 112.345L87.8403 111.371L90.2945 110.449L91.5754 109.884L92.0014 108.447L92.3217 108.191V106.807L91.6233 106.449L91.7301 105.271L93.7044 103.887L94.0236 101.837L95.1121 100.926L100.079 105.564L104.433 109.197L110.357 113.871L110.263 113.979L114.034 116.985L120.532 120.257L121.194 121.318L128.006 123.755L129.226 124.633L128.621 125.898L128.247 128.146L131.085 129.427L135.265 131.47L137.289 131.548L140.247 130.716L147.37 130.107L149.95 129.696L152.369 129.423L154.129 128.931L155.526 129.729L154.328 131.157L154.651 133.553L154.939 135.277L155.103 136.119L153.544 138.275L152.333 139.074L151.44 141.433L149.806 143.59L146.892 146.657L145.963 147.27L143.352 147.398L141.598 147.533L141.587 147.529ZM186.423 138.129L186.195 136.157L183.539 134.624L180.629 135.53L178.608 136.526H177.562L176.746 134.534L174.905 132.843L169.579 131.118L166.908 131.447L165.93 130.777L163.482 130.934L161.187 131.694L160.649 132.248L160.239 131.624L159.012 130.423L157.425 129.426L157.457 129.387L155.75 128.415L156.653 126.853L158.578 125.002L158.685 122.953L160.329 121.373L160.28 120.948L162.891 119.814H167.3L172.11 120.43L176.352 120.322L178.494 119.348L180.835 118.317L183.928 119.209L188.005 118.786L189.664 118.489L193.075 118.886L196.29 119.328L198.362 118.119L198.55 122.335L200.003 123.478L199.803 124.082L198.097 126.404L197.493 128.204L196.048 128.261L193.664 129.815L193.287 132.857L192.765 133.86L191.253 134.934L189.741 136.648L187.147 139.02L186.423 138.129ZM135.601 130.246L131.653 128.317L129.67 127.421L129.869 126.252L130.831 124.239L128.636 122.658L122.073 120.312L121.456 119.323L114.81 115.992L111.657 113.478L118.566 106.382L119.065 105.09L120.2 105.692L120.6 108.247L125.776 107.561L126.267 105.753L126.898 105.148L127.131 104.41L127.324 104.595L130.238 104.095L129.959 101.779V100.2L132.011 97.9828L135.312 96.0414L136.827 95.7884L138.695 95.1455L139.74 93.6851L139.484 92.2104L139.03 90.981L139.715 90.3696L140.387 89.5072H142.177L143.136 88.1656L144.274 86.7082L145.323 86.4839L146.073 86.2338L148.113 89.2552L147.27 90.4242L147.549 94.583L149.749 93.962L151.613 95.9149L151.351 97.3379L150.841 99.3013L150.242 100.451L150.731 103.154L151.812 104.539L150.599 106.062L150.477 108.185L150.822 109.59L148.05 111.294L149.746 114.552L154.105 118.416L157.546 119.375L158.854 119.767L158.986 120.917L157.429 122.413L157.323 124.464L155.62 126.098L154.647 127.78L154.301 127.584L152.165 128.192L149.77 128.463L147.233 128.87L140.072 129.483L137.133 130.297L135.601 130.246ZM230.864 125.359L225.576 123.366L221.342 120.986L218.987 118.207L213.929 115.62H211.207L208.644 115.951L206.225 117.323L204.086 118.164L202.351 117.901L199.61 116.396V111.439L202.313 109.709L205.78 106.394L208.741 103.194L209.257 100.719L211.087 100.448L212.168 96.2206L213.212 95.9159L214.684 96.6221H216.614L218.828 93.0766L220.524 92.3761L223.791 92.1845L225.419 92.2717L227.701 88.6419L229.597 88.7051L233.643 86.1361L234.181 91.2943L232.322 94.354L232.545 98.9937L233.165 102.438L234.933 104.827L237.654 109.701L238.407 112.402L238.196 115.175L238.47 117.531L238.599 117.554L237.421 119.896L234.852 124.523L234.368 125.454L230.864 125.359ZM160.037 118.843L157.917 118.207L154.753 117.325L150.789 113.81L149.711 111.74L152.276 110.163L151.767 108.083L151.857 106.516L153.42 104.554L151.94 102.66L151.576 100.648L152.016 99.8035L152.598 97.6273L152.982 95.5441L150.15 92.5735L148.721 92.9779L148.573 90.7816L149.652 89.2858L147.212 85.6733L147.527 83.6255L147.755 81.2797L146.957 79.5358L146.889 76.9245L146.413 73.564L147.244 72.0203L148.804 71.7328L151.326 71.2029L152.771 69.2184H153.504L156.563 68.7134L158.392 67.7609L159.652 67.0221L162.268 65.7362L162.689 68.3703L164.606 69.9994L165.933 72.0577L167.481 74.6353L167.88 76.5518L168.11 78.8516L170.365 81.6084L169.932 82.9404L169.784 85.2842L170.375 85.9473L170.193 86.6497L170.948 88.5144L170.827 89.1574L164.949 91.7792L163.442 94.675L166.983 97.3475L170.616 97.7461L172.191 99.8657L176.724 100.871L180.563 100.133L182.035 99.9989L181.953 101.561L184.333 104.609L185.736 105.873L186.045 108.046L187.602 110.357L190.128 109.202L191.178 109.505L192.316 109.049L193.595 110.047L194.314 111.825L195.501 113.29L197.435 111.927H198.333V116.708L196.025 118.049L193.251 117.666L189.632 117.245L187.851 117.566L184.06 117.96L180.752 117.002L177.964 118.229L176.058 119.097L172.189 119.192L167.431 118.598L162.62 118.594L160.136 119.672L160.037 118.843ZM241.521 116.808L239.642 116.481L239.487 115.148L239.705 112.281L238.877 109.31L236.047 104.208L234.381 101.949L233.827 98.896L233.627 94.6577L235.505 91.5664L234.692 83.7625L234.713 83.6801L233.943 81.4628L233.317 80.2103L235.967 78.4855L238.542 77.3069C239.197 77.007 239.853 76.7061 240.343 76.479C240.642 76.3429 240.873 76.2337 241.054 76.1369C241.214 76.1235 241.399 76.0966 241.607 76.0641C241.989 76.0075 242.497 75.9299 243.004 75.8513C244.018 75.6932 245.033 75.5332 245.038 75.5322L246.221 75.3406L247.566 76.8901L248.799 78.6312L251.661 76.9437L253.676 75.7843L256.609 75.4824L259.522 74.4015L260.564 74.6736L263.019 74.4178C263.019 74.4178 264.673 74.8787 264.833 74.9305C264.993 74.9822 266.754 75.6482 266.754 75.6482L268.087 76.8258L268.194 77.6978L268.301 79.231L268.355 81.0756L268.514 82.513L267.927 83.2796L268.033 83.9504L268.781 85.129L269.047 86.1543L268.94 88.2548L268.672 89.3721L267.658 90.499L266.804 91.6259L266.431 92.3924L267.13 93.366L267.77 94.6989L267.984 96.0826L267.823 97.0562L267.076 97.7222L266.328 98.1323L264.941 98.9525L264.515 99.9769L263.657 101.829L263.23 103.469L262.75 105.365L262.215 106.955L260.775 107.673L259.76 108.39L258.641 108.954L258.214 109.416L258.107 110.441L257.734 111.312L256.613 112.901L256.347 113.413L256.38 114.585L255.489 115.137L253.394 116.314L249.281 117.054L245.162 117.205L241.521 116.808ZM105.262 108.249L100.948 104.651L96.0827 100.105L96.9617 99.3675L98.2416 97.7269L98.9888 97.2143L100.056 98.0853L100.429 98.7015L99.4158 99.675L99.3619 100.546L99.8428 101.52L100.377 101.981L101.391 101.878H102.189L102.777 102.596L103.417 102.442L104.215 101.52L105.443 101.622L105.869 101.981L107.202 101.827L108.644 101.417L108.43 100.598L108.378 98.4964L109.125 97.5736L110.085 97.0092L110.245 95.9849L109.657 95.1646L109.498 94.4469L109.764 93.8317V93.1609L109.124 91.6747L109.231 90.3428L110.029 89.672L110.455 89.2619L110.402 88.6467L109.976 87.929L109.656 87.2582L109.815 86.5874L110.296 86.2808L110.456 85.5142L110.189 83.981L109.656 83.1608L109.229 82.3942L109.281 81.6276L109.762 81.1667L110.135 79.3221L110.295 78.246L111.415 77.1181L112.114 76.1445L112.912 75.171L113.925 74.5002L113.659 73.9358L113.286 73.2698L113.34 72.4496L113.552 71.9877L114.513 71.1675L114.833 70.2964L114.939 68.5534L113.766 67.116L113.232 66.3494L113.445 65.2225L114.512 63.8896L115.152 63.1719L116.006 62.6593L116.22 61.7882L116.006 61.173L115.847 60.5578L116.006 59.1732L116.327 58.8148L116.166 58.144L115.579 56.9146L115.312 56.3502V55.4504L115.366 54.5276L114.459 53.4007L113.871 52.73L114.031 51.9097L114.297 51.3453L115.311 51.4996C115.311 51.4996 119.688 55.7024 122.942 53.4467L125.183 53.0884L131.426 48.9881C132.162 49.2831 132.978 49.3376 133.75 49.1432C134.521 48.9487 135.204 48.5161 135.695 47.912L137.029 45.2461L142.951 41.9143C142.951 41.9143 145.246 45.2461 148.02 45.4004L150.476 47.3983L152.877 50.8835L154.163 51.8599L154.482 54.8304L157.204 56.5227L159.498 59.3974L160.085 62.3181L162.023 64.2173L162.062 64.4579L159.047 65.9393L157.75 66.6982L156.135 67.5386L153.446 67.9909H152.102L150.559 70.1067L148.543 70.5312L146.389 70.9298L145.085 73.3494L145.606 76.9907L145.68 79.8117L146.447 81.4848L146.254 83.4799L146.025 84.9575L145.004 85.3015L143.528 85.6158L142.092 87.4556L141.5 88.2826H139.734L138.796 89.512L137.534 90.6379L138.228 92.471L138.389 93.4005L137.871 94.1269L136.551 94.5878L134.849 94.8752L131.177 97.0341L128.676 99.7383V101.817L128.825 103.09L127.755 103.273L126.524 102.092L125.762 104.498L125.112 105.123L124.749 106.457L121.673 106.866L121.364 104.911L118.371 103.326L117.446 105.722L110.762 112.591L105.262 108.249ZM195.439 111.208L194.664 109.292L192.528 107.625L191.105 108.194L190.021 107.881L188.064 108.775L187.273 107.602L186.942 105.264L185.321 103.819L183.254 101.171L183.385 98.6325L180.407 98.9046L176.742 99.6051L172.951 98.7638L171.326 96.578L167.488 96.1574L165.053 94.3194L165.893 92.7048L171.968 89.9959L172.273 88.3841L171.534 86.5635L171.778 85.6254L171.09 84.854L171.178 83.225L171.788 81.3497L169.349 78.3667L169.149 76.3946L168.692 74.1821L167.028 71.4137L165.591 69.1839L163.881 67.7331L163.464 65.1382L163.763 65.2283L164.67 63.8954L169.159 61.5257L172.158 64.2087L174.302 65.9431L176.013 66.3264L176.906 67.6603L178.502 68.6818L180.031 71.0937L183.324 72.4007L186.381 73.1203L186.117 75.0636L187.071 78.0428L189.581 79.9047L192.317 81.1763L194.057 80.9798L198.158 84.0059L201.521 83.0362L203.534 83.408L203.1 86.0479L209.562 82.4277L210.231 81.0354L213.012 78.6599L215.287 76.2643L215.907 74.4743L217.564 73.2564L217.963 72.8731L221.873 77.0261L223.798 78.6178L225.966 79.9593L226.764 81.4369L229.298 81.3756L230.595 81.1044L232.1 80.6454L232.723 81.8815L233.365 83.7271L233.04 85.0284L229.237 87.4556L227.001 87.3818L224.731 90.9963L223.796 90.9465L220.233 91.1601L217.948 92.1011L215.894 95.3898H214.985L213.327 94.5926L211.098 95.2442L210.045 99.3531L208.175 99.63L207.551 102.622L204.842 105.547L201.543 108.716L198.451 110.697H197.01L195.742 111.589L195.439 111.208ZM204.996 82.4248L201.459 81.7723L198.42 82.6471L194.418 79.714L192.531 79.9267L190.305 78.9052L188.172 77.3222L187.419 74.9717L187.795 72.1995L183.762 71.2604L180.907 70.1258L179.448 67.8261L177.841 66.7969L176.812 65.2637L174.895 64.8306L173.008 63.3061L170.157 60.7495L171.291 58.1172L170.651 56.4767L169.21 55.7101L170.33 52.9935L168.036 48.5856L167.717 46.6385L166.596 45.9677L166.542 44.6865L167.61 44.2764L170.603 42.1759L172.099 38.5883L176.741 36.0768L177.222 31.1054L176.582 27.6711L175.883 25.8773L175.612 24.5951L176.359 24.0317L177.32 23.6733L178.654 22.0328L179.401 21.2126L180.414 20.5974L181.588 20.3415L183.028 20.6999L183.882 19.9333L185.108 19.6775L186.449 19.8614L187.017 24.2224L189.724 26.0957L190.678 29.5569L192.759 31.2396L193.617 32.8887L193.766 33.7511L192.238 35.5124L191.874 37.8447L192.225 39.3635L191.044 40.0257L190.805 47.0591L191.553 47.3294L191.208 48.6575L192.516 51.1719L195.16 51.7468L197.774 51.7622L200.129 54.5161L203.138 55.8577L204.778 57.525L205.941 60.5712L208.563 63.8245L211.177 66.5478L212.556 67.8721L212.531 67.9161L212.689 67.9986L212.854 68.1576L212.868 68.0934L215.243 69.3478L217.101 71.982L216.757 72.3116L214.821 73.7336L214.161 75.6348L212.141 77.7688L209.185 80.2928L208.573 81.5653L204.791 83.684L204.996 82.4248ZM226.954 79.1055L224.606 77.6557L222.803 76.1704L218.295 71.384L218.255 71.4195L216.13 68.4058L213.163 66.8372L214.045 63.0723L216.286 59.842L215.923 58.7937L217.251 58.0271L218.012 56.4585L218.688 55.9717L222.08 59.727L222.407 55.6545L222.841 54.1961V52.8248L221.644 50.7426L221.344 48.2234L221.234 44.6166L219.413 41.4266L219.094 37.2247L217.214 33.9159L218.126 29.1477L219.074 26.3152L219.632 22.5215L219.744 19.1926L219.85 17.4678L219.938 16.8334L220.813 16.0774L221.773 15.8733L222.734 15.3606L223.8 14.6429L225.397 13.6693L226.304 12.5424L226.73 11.5679L226.944 10.9019L228.171 10.6461L230.466 11.107L231.693 11.3628L232.973 11.4654L234.36 11.2603L235.268 10.7994L237.029 9.97913L238.096 9.77406L239.429 9.46743L241.35 9.67249L242.631 11.2057L243.429 12.643L243.642 13.3617L244.39 14.6946L245.723 15.2581L247.43 15.6164L248.764 15.4123L250.152 15.9758L251.326 16.4376L251.752 17.5138L251.966 19.0469L251.806 20.0205L250.738 21.4052L250.04 22.5838L249.4 23.5056L248.813 24.4284L248.919 25.607L249.56 26.5298L249.933 27.2475L250.2 28.2719L250.306 29.2455L251.213 30.2708L251.961 31.552V32.6443L251.747 33.5662L251.321 34.5915L250.948 35.4117L250.575 35.8727L250.734 37.9223L250.948 38.9476L250.15 39.972L249.563 40.6897L249.029 41.4074L248.817 41.9718L248.87 43.4092L249.19 44.2294L249.136 45.203L250.15 45.7157L250.577 47.5612L250.363 48.4831L250.097 49.2008L249.777 50.0728L249.296 50.3794L250.257 51.6088L251.163 53.1986L252.978 53.3011L254.366 53.096L255.593 52.891L256.713 52.7884C256.713 52.7884 257.781 52.9427 257.94 52.9427C258.1 52.9427 260.342 53.8645 260.342 53.8645L262.369 55.2492L263.49 56.4278L263.916 57.7607L264.023 59.2939L264.13 60.8827V62.4714L264.023 63.3434L263.703 65.6499L263.116 66.3676L262.581 67.1879L261.675 68.0589L260.287 68.8792L259.699 69.7502L259.38 70.421L258.846 71.4453L258.793 72.8827L258.287 73.5314L257.705 73.7461L256.291 74.2788L253.248 74.5932L250.988 75.8954L249.161 76.9725L248.598 76.1762L246.723 74.0105L244.817 74.3258C243.719 74.4993 242.072 74.7561 241.274 74.8739L241.233 74.7781L240.097 75.1432L240.116 75.216C239.173 75.6539 236.935 76.6783 235.361 77.3979L232.521 79.2406L230.291 79.921L229.207 80.1586L227.535 80.1989L226.954 79.1055ZM209.558 63.0435L207.075 59.9618L205.89 56.8571L203.902 54.8343L200.935 53.51L198.381 50.5232H195.375L193.394 50.091L192.568 48.5041L193.075 46.5522L192.116 46.2063L192.302 40.7347L193.682 39.9624L193.183 37.791L193.458 36.024L195.133 34.0951L194.855 32.4958L193.792 30.4548L191.818 28.8583L190.851 25.3474L188.224 23.5267L187.618 18.8735L187.506 18.8869L187.784 18.334L187.303 17.2071L186.663 16.2335L186.503 15.467L186.983 13.8265L187.25 12.3891L187.623 11.2105L188.477 9.46838L189.598 8.5456L191.305 8.08374L193.119 7.52028L196.588 6.80257L198.508 6.23816L200.164 6.59655L201.711 7.31426L202.777 8.69796L203.365 10.0309L204.005 11.7222L204.326 12.7465L204.699 13.7718L205.072 14.387L205.87 14.182L206.35 13.3627L208.271 13.1576L209.445 12.644L210.192 11.6196L211.472 10.6968L212.059 10.441L213.127 11.2613L213.82 12.0278L214.618 12.438L215.525 11.8736L216.272 11.3092L216.86 11.1558L217.607 12.4888L218.088 13.6674L218.3 14.7952L218.354 16.0764L218.642 16.8353L218.573 17.3279L218.461 19.1332L218.355 22.3797L217.835 25.9846L216.891 28.8037L215.869 34.1181L217.832 37.5754L218.152 41.7792L219.96 44.9414L220.059 48.278L220.398 51.1163L221.552 53.1334V54.0179L221.153 55.3699L221.035 56.6875L218.874 54.2919L216.988 55.6497L216.255 57.1561L214.382 58.236L214.872 59.6485L212.846 62.5682L212.114 65.6902L209.558 63.0435Z" fill="white" stroke="black"/>
</g>
</g>
<g opacity="0.4">
<path opacity="0.4" d="M165.597 69.1915L167.034 71.4213L168.698 74.1907L169.155 76.4023L169.355 78.3753L171.795 81.3583L171.185 83.2336L171.097 84.8626L171.786 85.6349L171.542 86.573L172.28 88.3937L171.975 90.0054L165.9 92.7144L165.06 94.329L167.495 96.1659L171.333 96.5876L172.958 98.7733L176.749 99.6137L180.414 98.9132L183.392 98.6411L183.26 101.179L185.328 103.827L186.948 105.272L187.28 107.609L188.071 108.783L190.028 107.888L191.112 108.2L192.535 107.631L194.671 109.299L195.445 111.215L195.752 111.598L197.02 110.705H198.46L201.552 108.725L204.851 105.556L207.556 102.631L208.179 99.6396L210.049 99.3626L211.102 95.2527L213.33 94.6011L214.989 95.3974H215.898L217.952 92.1088L220.237 91.1687L223.801 90.9551L224.734 91.0049L227.005 87.3904L229.241 87.4651L233.058 85.0418L233.383 83.7405L232.742 81.8949L232.119 80.6588L230.614 81.1168L229.317 81.388L226.783 81.4493L225.985 79.9727L223.816 78.6312L221.892 77.0405L217.982 72.8865L217.583 73.2698L215.925 74.4877L215.305 76.2768L213.031 78.6724L210.25 81.0469L209.581 82.4382L203.119 86.0594L203.553 83.4195L201.54 83.0477L198.176 84.0174L194.067 81.0057L192.326 81.2021L189.59 79.9295L187.081 78.0677L186.126 75.0885L186.39 73.1452L183.333 72.4256L180.04 71.1185L178.511 68.7057L176.915 67.6852L176.022 66.3513L174.311 65.968L172.167 64.2336L169.168 61.5505L164.679 63.9212L163.772 65.2541L163.473 65.1641L163.889 67.7599L165.597 69.1915Z" fill="white"/>
<path opacity="0.4" d="M174.896 64.8248L176.813 65.2579L177.842 66.7911L179.449 67.8203L180.908 70.12L183.764 71.2546L187.796 72.1937L187.42 74.9659L188.173 77.3164L190.306 78.8994L192.532 79.9219L194.419 79.7082L198.421 82.6414L201.461 81.7655L204.998 82.419L204.792 83.6743L208.575 81.5547L209.186 80.2812L212.142 77.7572L214.162 75.6222L214.822 73.7211L216.758 72.2981L217.101 71.9685L215.244 69.3343L212.87 68.0799L212.855 68.1432L212.691 67.9841L212.534 67.9017L212.559 67.8576L211.18 66.5334L208.568 63.8187L205.946 60.5654L204.777 57.523L203.138 55.8557L200.128 54.5141L197.773 51.7602L195.16 51.7449L192.516 51.1699L191.207 48.6555L191.552 47.3274L190.804 47.0581L191.044 40.0237L192.226 39.3615L191.875 37.8427L192.239 35.5094L193.767 33.7491L193.617 32.8867L192.759 31.2376L190.678 29.554L189.724 26.0938L187.016 24.2204L186.448 19.8595L185.111 19.6726L183.884 19.9285L183.03 20.695L181.59 20.3367L180.416 20.5925L179.402 21.2077L178.655 22.028L177.321 23.6685L176.36 24.0268L175.613 24.5903L175.879 25.8714L176.578 27.6653L177.218 31.0996L176.738 36.071L172.096 38.5825L170.6 42.1701L167.607 44.2715L166.539 44.6817L166.592 45.9628L167.713 46.6336L168.033 48.5807L170.327 52.9887L169.207 55.7053L170.648 56.4719L171.288 58.1123L170.154 60.7446L173.005 63.3012L174.896 64.8248Z" fill="white"/>
<path opacity="0.4" d="M105.262 108.251L110.761 112.586L117.445 105.718L118.37 103.322L121.363 104.907L121.671 106.862L124.748 106.454L125.111 105.119L125.761 104.494L126.524 102.089L127.754 103.27L128.824 103.087L128.675 101.814V99.7354L131.176 97.0322L134.848 94.8733L136.549 94.5858L137.869 94.1249L138.388 93.3986L138.227 92.4691L137.528 90.636L138.79 89.5101L139.729 88.2806H141.495L142.087 87.4537L143.525 85.611L145 85.2957L146.021 84.9517L146.249 83.4741L146.442 81.479L145.676 79.806L145.602 76.9859L145.081 73.3446L146.384 70.925L148.539 70.5264L150.555 70.1029L152.098 67.9871H153.443L156.13 67.5348L157.746 66.6944L159.043 65.9355L162.058 64.454L162.019 64.2135L160.081 62.3143L159.494 59.3926L157.2 56.5179L154.478 54.8266L154.158 51.8561L152.877 50.8825L150.476 47.3974L148.021 45.3985C145.247 45.2452 142.953 41.9134 142.953 41.9134L137.03 45.2452L135.696 47.91C135.205 48.5142 134.522 48.9468 133.751 49.1413C132.979 49.3357 132.163 49.2812 131.427 48.9861L125.184 53.0865L122.943 53.4448C119.688 55.6996 115.313 51.4977 115.313 51.4977L114.3 51.3444L114.033 51.9078L113.874 52.7281L114.46 53.3988L115.367 54.5267L115.314 55.4494V56.3722L115.581 56.9357L116.167 58.1661L116.328 58.8368L116.007 59.1952L115.847 60.5789L116.007 61.1941L116.22 61.7997L116.007 62.6707L115.153 63.1834L114.512 63.9011L113.445 65.2341L113.231 66.3619L113.765 67.1285L114.939 68.5658L114.832 70.3089L114.512 71.1799L113.551 72.0001L113.338 72.4611L113.285 73.2813L113.658 73.9521L113.924 74.5155L112.911 75.1863L112.113 76.1599L111.414 77.1335L110.294 78.2613L110.134 79.3374L109.761 81.183L109.281 81.6439L109.229 82.4105L109.656 83.177L110.189 83.9973L110.456 85.5305L110.296 86.2971L109.816 86.6047L109.657 87.2754L109.977 87.9462L110.404 88.6639L110.457 89.2791L110.03 89.6893L109.232 90.36L109.125 91.6929L109.765 93.1792V93.8499L109.499 94.4651L109.659 95.1828L110.245 96.0031L110.086 97.0284L109.125 97.5918L108.378 98.5146L108.431 100.616L108.645 101.436L107.204 101.846L105.871 102L105.444 101.641L104.216 101.539L103.418 102.462L102.778 102.615L102.191 101.897H101.393L100.38 102L99.8459 101.539L99.366 100.565L99.4199 99.6942L100.433 98.7206L100.06 98.1055L98.9929 97.2344L98.2457 97.7471L96.9647 99.3876L96.0858 100.124L100.952 104.67L105.262 108.251Z" fill="white"/>
<path opacity="0.4" d="M86.4347 116.622L90.6956 119.488L93.6386 121.691L97.6072 124.482L101.398 126.889L104.927 129.59L107.872 132.284L111.501 134.542L114.987 137.207L119.433 140.209L121.752 140.951L124.335 140.32L126.881 139.944L129.983 139.871L131.9 140.976L134.344 142.15L135.524 141.772L137.63 142.109L138.979 143.738L141.132 147.388L141.142 147.362L141.584 147.526H141.597L143.35 147.391L145.961 147.261L146.89 146.648L149.804 143.581L151.437 141.425L152.335 139.065L153.546 138.265L155.106 136.109L154.942 135.269L154.655 133.544L154.332 131.148L155.53 129.72L154.133 128.921L152.373 129.413L149.954 129.686L147.375 130.098L140.252 130.708L137.295 131.539L135.272 131.462L131.092 129.419L128.254 128.137L128.629 125.889L129.232 124.623L128.012 123.744L121.2 121.307L120.538 120.246L114.039 116.974L110.268 113.967L110.361 113.86L104.437 109.186L100.083 105.553L95.1161 100.913L94.0287 101.824L93.7085 103.874L91.7341 105.258L91.6274 106.436L92.3258 106.795V108.178L92.0055 108.434L91.5785 109.872L90.2975 110.435L87.8434 111.358L84.3746 112.331L82.114 113.626L82.5899 113.946L86.4347 116.622Z" fill="white"/>
<path opacity="0.4" d="M253.674 75.7737L251.66 76.9341L248.797 78.6216L247.564 76.8795L246.219 75.33L245.036 75.5216C245.031 75.5216 244.016 75.6826 243.002 75.8398C242.493 75.9184 241.984 75.9969 241.605 76.0535C241.397 76.0851 241.212 76.1119 241.053 76.1253C240.871 76.2212 240.636 76.3314 240.341 76.4674C239.85 76.6945 239.195 76.9954 238.54 77.2963C237.371 77.832 236.202 78.3657 235.964 78.4749L233.314 80.1998L233.94 81.4522L234.71 83.6696L234.689 83.752L235.502 91.5559L233.621 94.6509L233.821 98.8893L234.375 101.942L236.041 104.202L238.871 109.304L239.7 112.275L239.482 115.141L239.637 116.475L241.516 116.803L245.161 117.201L249.28 117.051L253.393 116.31L255.488 115.134L256.378 114.582L256.345 113.41L256.612 112.898L257.732 111.309L258.105 110.438L258.212 109.413L258.639 108.952L259.759 108.388L260.773 107.671L262.213 106.953L262.747 105.364L263.227 103.468L263.654 101.828L264.508 99.9835L264.935 98.9582L266.323 98.138L267.07 97.7278L267.817 97.0571L267.978 96.0835L267.764 94.6998L267.124 93.3669L266.425 92.3934L266.798 91.6267L267.652 90.4989L268.666 89.3711L268.932 88.2432L269.039 86.1418L268.773 85.1165L268.025 83.9379L267.919 83.2671L268.505 82.5005L268.346 81.0632L268.293 79.2185L268.186 77.6853L268.079 76.8143L266.745 75.6357C266.745 75.6357 264.985 74.9649 264.824 74.9179C264.663 74.871 263.01 74.4053 263.01 74.4053L260.556 74.6612L259.514 74.3881L256.601 75.468L253.674 75.7737Z" fill="white"/>
<path opacity="0.4" d="M188.22 23.5334L190.848 25.354L191.815 28.8641L193.79 30.4605L194.852 32.5015L195.13 34.1008L193.456 36.0307L193.179 37.7977L193.678 39.9701L192.298 40.7434L192.112 46.2149L193.071 46.5608L192.564 48.5127L193.39 50.0986L195.372 50.5318H198.378L200.932 53.5186L203.899 54.8419L205.887 56.8647L207.072 59.9695L209.556 63.0502L212.113 65.7035L212.845 62.5816L214.871 59.6618L214.381 58.2494L216.254 57.1695L216.987 55.6631L218.872 54.3043L221.033 56.6999L221.152 55.3824L221.551 54.0303V53.1468L220.396 51.1297L220.057 48.2924L219.958 44.9548L218.15 41.7926L217.83 37.5888L215.866 34.1315L216.888 28.8171L217.832 25.998L218.352 22.3931L218.458 19.1456L218.57 17.3412L218.639 16.8487L218.351 16.0898L218.299 14.8086L218.085 13.6808L217.605 12.5021L216.858 11.1692L216.271 11.3226L215.524 11.886L214.617 12.4494L213.819 12.0393L213.121 11.2727L212.053 10.4525L211.467 10.7083L210.186 11.6311L209.439 12.6564L208.264 13.1691L206.344 13.3741L205.863 14.1944L205.065 14.3995L204.692 13.7843L204.319 12.7589L203.999 11.7336L203.358 10.0423L202.771 8.70942L201.704 7.32572L200.157 6.60801L198.503 6.24963L196.581 6.81306L193.112 7.5308L191.298 8.09423L189.59 8.55516L188.469 9.47793L187.615 11.221L187.242 12.3996L186.976 13.837L186.496 15.4775L186.657 16.2441L187.297 17.2176L187.777 18.3455L187.499 18.8974L187.611 18.884L188.22 23.5334Z" fill="white"/>
<path opacity="0.4" d="M219.74 19.1974L219.628 22.5263L219.071 26.3199L218.123 29.1525L217.211 33.9217L219.091 37.2305L219.411 41.4324L221.232 44.6223L221.342 48.2291L221.642 50.7474L222.839 52.8306V54.1999L222.405 55.6583L222.079 59.7309L218.687 55.9755L218.011 56.4614L217.249 58.03L215.921 58.7966L216.284 59.8439L214.042 63.0742L213.16 66.84L216.128 68.4087L218.253 71.4223L218.294 71.3859L222.8 76.1771L224.604 77.6624L226.951 79.1122L227.539 80.1979L229.21 80.1576L230.295 79.921L232.525 79.2396L235.368 77.3893C236.942 76.6706 239.18 75.6462 240.123 75.2074L240.104 75.1346L241.24 74.7695L241.28 74.8653C242.078 74.7474 243.724 74.4897 244.823 74.3162L246.729 74.0009L248.604 76.1666L249.167 76.9619L250.995 75.8848L253.256 74.5817L256.298 74.2683L257.712 73.7346L258.294 73.5199L258.799 72.8722L258.853 71.4348L259.387 70.4095L259.707 69.7387L260.294 68.8677L261.682 68.0474L262.588 67.1764L263.122 66.3561L263.709 65.6384L264.029 63.3319L264.136 62.4609V60.8721L264.029 59.2834L263.922 57.7502L263.495 56.4173L262.375 55.2386L260.348 53.8549C260.348 53.8549 258.107 52.9322 257.946 52.9322C257.786 52.9322 256.719 52.7788 256.719 52.7788L255.599 52.8814L254.372 53.0864L252.984 53.2915L251.17 53.189L250.263 51.6002L249.302 50.3698L249.782 50.0622L250.102 49.1912L250.368 48.4735L250.582 47.5507L250.155 45.7051L249.141 45.1925L249.195 44.2189L248.875 43.3987L248.821 41.9613L249.035 41.3978L249.568 40.6801L250.155 39.9624L250.953 38.9371L250.74 37.9118L250.58 35.8621L250.953 35.4012L251.326 34.5809L251.753 33.5556L251.967 32.6328V31.5567L251.219 30.2756L250.313 29.2503L250.206 28.2767L249.939 27.2514L249.566 26.5337L248.926 25.6109L248.819 24.4322L249.406 23.5094L250.046 22.5866L250.745 21.408L251.812 20.0243L251.972 19.0507L251.758 17.5176L251.331 16.4415L250.157 15.9806L248.769 15.4171L247.435 15.6222L245.727 15.2638L244.394 14.7004L243.646 13.3674L243.433 12.6497L242.635 11.2124L241.354 9.67917L239.433 9.47412L238.1 9.78173L237.032 9.98678L235.271 10.807L234.364 11.268L232.977 11.473L231.696 11.3705L230.469 11.1146L228.174 10.6537L226.947 10.9095L226.734 11.5803L226.307 12.5539L225.4 13.6817L223.803 14.6553L222.736 15.373L221.775 15.8857L220.815 16.0908L219.94 16.8468L219.852 17.4821L219.74 19.1974Z" fill="white"/>
<path opacity="0.4" d="M253.853 117.483L249.381 118.281L245.117 118.436L241.333 118.02L239.911 117.773L238.57 120.446L235.998 125.081L235.427 126.178L236.347 126.664L236.047 128.511L236.007 128.594L232.965 134.693L227.578 145.713L225.954 149.367L228.013 150.376L232.857 152.298L239.396 153.906L241.335 153.857L244.428 153.761L248.145 152.38L251.027 148.405L254.685 145.722L257.847 142.331L260.613 139.119L262.1 138.072L263.167 136.207L263.854 133.726L265.527 129.126L266.608 127.569L266.344 127.442L265.58 126.394L264.246 125.778L263.126 126.545L261.952 127.312L259.978 128.9L259.279 128.337L258.319 127.414L256.931 126.491L256.878 125.62L257.251 123.877L257.838 121.622L258.318 119.265L258.691 117.625L258.423 116.344L257.463 115.523L257.291 115.491L256.156 116.194L253.853 117.483Z" fill="white"/>
<path opacity="0.4" d="M157.325 124.473L157.432 122.424L158.989 120.928L158.856 119.778L157.548 119.385L154.107 118.427L149.748 114.562L148.052 111.304L150.824 109.6L150.48 108.196L150.602 106.073L151.814 104.551L150.733 103.165L150.243 100.463L150.842 99.3128L151.353 97.3494L151.614 95.9274L149.749 93.9735L147.555 94.5945L147.275 90.4357L148.118 89.2657L146.078 86.2443L145.329 86.4945L144.279 86.7187L143.141 88.1771L142.182 89.5187H140.387L139.715 90.3811L139.031 90.9915L139.485 92.2209L139.741 93.6956L138.696 95.156L136.828 95.798L135.313 96.0509L132.011 97.9923L129.959 100.21V101.785L130.238 104.101L127.324 104.6L127.131 104.414L126.898 105.152L126.267 105.758L125.776 107.566L120.6 108.252L120.201 105.697L119.065 105.095L118.566 106.386L111.657 113.482L114.81 115.997L121.456 119.327L122.074 120.316L128.637 122.663L130.832 124.244L129.871 126.257L129.671 127.426L131.654 128.323L135.603 130.251L137.137 130.311L140.076 129.497L147.237 128.884L149.774 128.478L152.169 128.207L154.306 127.598L154.651 127.795L155.623 126.113L157.325 124.473Z" fill="white"/>
<path opacity="0.4" d="M147.984 152.401L148.573 154.879L149.493 157.341L150.534 158.119L152.33 158.652L153.583 159.148L155.379 160.018L156.306 160.654L159.855 161.924L163.835 163.494L168.001 164.761L170.378 164.885L172.548 163.811L175.728 161.911L180.061 159.25L182.401 157.965L183.281 156.144L185.422 153.883L187.087 152.659L190.111 151.175L191.907 148.002L193.404 145.959L192.157 145.384L190.361 145.849L188.245 145.231L187.387 143.006L187.309 140.902L186.371 140.051L185.19 138.614L184.991 136.897L183.378 135.967L181.073 136.685L178.918 137.755H176.689L175.657 135.236L174.225 133.921L169.449 132.369L166.571 132.724L165.558 132.028L163.737 132.145L161.904 132.752L160.451 134.248L159.192 132.332L158.152 131.334L156.617 130.386L155.669 131.512L155.919 133.371L156.2 135.06L156.459 136.39L154.464 139.154L153.399 139.858L152.584 142.009L150.778 144.387L147.679 147.623L146.391 148.473L144.404 148.569L145.376 148.929L147.984 152.401Z" fill="white"/>
<path opacity="0.4" d="M118.097 181.374L123.597 179.883L124.727 177.592L125.992 172.865L127.32 168.507L128.657 165.936L128.472 164.332L134.448 163.124L138.408 162.172L140.537 161.521L135.534 156.354L132.225 152.647L129.614 151.895L126.987 151.615L124.915 150.527L124.062 149.825L118.222 149.059L116.109 150.364L114.02 149.27L112.857 146.757L103.873 139.881L98.9849 136.394L95.7775 135.274L93.892 133.07L93.4341 133.114L94.0416 134.632L95.4703 137.25L95.5092 137.219L98.1569 140.214L100.032 143.823L101.943 148.624L101.461 151.558L99.2792 153.953L96.7931 155.358L95.5241 156.211L94.6891 157.816L94.9355 159.593L95.9641 161.852L95.6219 164.705L99.4598 166.738L102.522 168.138L105.185 170.847L105.339 173.945V178.074L105.474 180.278L106.871 184.162L108.389 187.87L110.477 190.252L111.697 190.612L114.277 187.019L118.097 181.374Z" fill="white"/>
<path opacity="0.4" d="M278.329 158.962L272.044 156.764L268.408 155.094V152.333L270.994 148.606L271.371 145.957L270.439 144.502L266.625 142.426L265.328 145.314L261.228 151.968L259.893 155.245L258.533 156.115L256.6 158.545L254.264 158.966L252.202 160.815L249.01 162.404L243.765 163.792L239.956 164.073L235.698 162.983L232.457 163.329L232.27 164.404L233.247 169.491L233.801 173.215L235.453 175.778L238.495 176.669L244.016 178.027L254.958 181.208L261.133 185.444L264.748 191.416L269.004 197.412L271.591 200.868L274.229 205.268L274.379 205.376V204.437L275.233 204.13L276.354 205.258L279.182 205.513L280.409 205.36L283.077 204.797L283.343 204.284L282.223 203.003L280.248 202.645L278.488 201.261L278.381 199.006L279.769 198.135L283.56 200.134L285.107 200.083L290.443 196.239L290.977 195.163L291.884 193.522L292.682 191.989L292.895 190.708L294.283 190.452L295.51 189.221L295.67 187.94L299.885 184.455L299.938 181.073L300.365 180.663L300.471 179.022L301.005 178.561L300.578 176.921L299.617 176.25L298.657 174.404L297.859 174.507L297.379 175.273L296.472 174.915L295.885 173.634L293.538 171.737L292.839 172.558L292.092 173.686L289.638 174.403L286.49 172.966L286.383 171.89L286.063 170.967L285.364 169.686L286.271 166.715L287.445 165.895L287.179 164.562L287.998 164.324L284.905 161.654L278.329 158.962Z" fill="white"/>
<path opacity="0.4" d="M54.4597 141.318L55.4732 138.676L56.7403 137.216L58.1898 138.839L58.7036 140.979L58.4362 141.493L59.7621 142.277L61.4441 143.085L61.9429 145.686V147.72L63.176 149.963L64.44 152.934L65.7628 155.129L81.9095 152.674L82.1439 150.087L81.693 147.344L82.5749 145.931V143.84L80.6874 141.331L81.1812 138.674L81.9225 136.413L83.0867 133.99L86.9595 136.417L89.6152 137.82L92.8016 137.565L94.0616 137.322L92.8645 135.118L92.211 133.489L88.3502 130.31L82.6906 126.234L74.7345 120.773L69.057 117.092L65.1134 114.387L57.2321 111.069L50.2167 106.253L45.2994 102.212L40.8879 97.1558L37.7853 93.0938L35.2962 91.2463L35.2772 91.4811L34.957 91.9937L34.3165 92.4038L33.7299 92.9673L33.5703 96.094L34.7465 98.092L35.2802 99.1681L35.8139 100.244L35.8668 101.682L35.6533 103.424L34.6926 103.834L33.5723 105.217L32.4519 106.751L32.3452 107.622L31.6468 108.698L30.5794 110.338L30.4726 112.49L30.2063 111.927L30.0995 111.312L29.4012 110.902L28.7607 111.722L27.6932 112.696L26.5729 113.516L25.0764 114.644L22.8358 115.822L22.7819 117.001L22.1953 117.053L21.6087 118.18L22.307 118.851L22.6801 119.466L21.7194 119.621L20.5991 120.697L19.801 120.594L18.8402 120.133L18.1419 120.749L17.9823 121.671L18.5689 122.438L19.4229 124.59L19.5825 126.999L19.2094 126.486L18.2487 125.816L17.4506 126.582L16.1696 128.735L15.5291 129.298L13.6616 129.093L12.2738 129.246L10.94 129.964L9.60619 130.938L9.49945 131.655L15.156 137.447L17.8237 137.396L20.9722 139.908L26.6816 140.113L29.2425 141.906L29.4561 143.44L30.2033 143.696L31.0572 143.951L31.2169 144.567L30.5764 144.925L30.3629 146.053L31.0612 146.819L31.5411 148.716L32.1277 148.818L35.81 146.358L35.9696 145.795L36.9832 144.667L38.1035 143.642L39.0642 142.971L40.2913 142.204L41.7878 142.154L42.0541 142.564L42.5879 143.487L43.6014 143.999L44.9891 144.512L51.4987 144.409L51.5745 145.394L53.2256 143.281L54.4597 141.318Z" fill="white"/>
<path opacity="0.4" d="M57.0036 170.638L59.0548 170.997L59.2184 173.045L60.9143 174.925L61.9728 175.94L63.2059 175.249L64.9657 173.82L66.1459 172.403L67.7581 171.559L69.3453 170.187L71.5251 170.466L72.832 169.588L75.2203 168.933L76.654 169.897L78.5036 169.453L80.1586 171.705L84.1432 169.965L82.9141 173.51L83.2563 174.102L84.202 173.9L86.297 174.302L87.4543 173.897L88.413 172.089L90.9739 169.082L94.2661 165.257L94.6512 162.05L93.6885 159.936L93.3662 157.613L94.5235 155.391L96.1197 154.319L98.4492 153.002L100.251 151.023L100.622 148.764L98.8442 144.298L97.0485 140.84L94.8856 138.416L92.9433 138.787L89.3358 139.074L86.2791 137.457L83.6264 135.788L83.1006 136.882L82.4143 138.991L82.0411 141.018L83.8539 143.429V146.259L83.0288 147.58L83.4279 150.03L83.0927 153.727L65.0894 156.465L63.2657 153.428L61.9967 150.449L60.6569 148.018V145.736L60.2998 143.905L59.1116 143.33L56.7622 141.942L57.3488 140.816L57.0086 139.402L56.7502 139.114L56.5946 139.294L55.593 141.902L54.2761 144.005L51.7152 147.285L51.6703 147.254L51.7182 149.496L53.3144 151.545L53.5279 152.519L54.0616 153.19L55.0752 153.651L55.982 154.061L56.0349 156.367L55.0213 157.238L54.4876 158.52L54.2212 160.672L53.9549 163.081L53.3144 164.259L52.7278 164.823V166.206L53.3683 166.462L53.6885 167.026L53.902 168.559L53.1548 168.508L52.7816 169.636L53.048 170.712L53.3473 170.826L53.3862 170.356L57.0036 170.638Z" fill="white"/>
<path opacity="0.4" d="M249.693 211.488L248.695 207.779L247.025 206.175L246.063 204.067L243.768 202.742L244.006 199.772L243.807 199.843L241.325 200.589L239.23 200.084L238.432 200.846L235.795 202.816L231.505 204.375L226.659 205.486L223.275 205.476L220.626 205.027L216.746 200.58L214.551 197.635L212.427 191.527L210.171 192.083L206.679 192.243L205.406 188.116L203.282 182.948L199.856 175.409L197.722 169.533L195.568 164.133L194.481 159.438L192.891 158.317L191.07 159.41L189.166 161.632L187.855 163.521H186.498L185.631 165.304L183.463 167.537L180.606 168.495L176.325 172.607L173.632 173.368L170.732 173.081L168.878 172.966L167.54 174.526L169.146 175.825L171.483 177.771L171.682 179.923L170.096 180.754L170.225 183.958L169.906 188.381L169.228 190.336V194.107L169 197.182L169.774 201.794L171.081 204.179L174.054 206.32L174.211 209.796L173.926 212.816V214.417L174.441 214.069L177.909 211.301L179.564 211.096L180.897 209.563L180.791 208.589L179.884 207.411L180.097 206.74L184.526 206.893L184.899 208.175L186.446 211.609L188.794 214.889L193.863 217.708L194.769 216.888L194.716 215.862L195.676 215.555L196.423 216.426L197.384 216.375L198.825 215.76L202.4 213.095L202.773 211.353L204.961 207.97L205.815 208.073L207.683 209.457L207.363 210.277L206.936 212.532L208.056 213.813L208.429 215.146L209.069 215.912L207.309 217.446L207.629 218.624L209.443 220.981L209.709 221.955L208.748 222.518L208.962 223.8L209.922 224.21L210.136 225.081L209.175 226.362L207.894 228.361L208.267 230.462L209.975 230.872L212.216 231.436L213.924 233.178L217.179 233.691L234.787 233.536L236.921 231.64L237.294 230.82L235.64 229.744L235.534 227.796L239.424 227.694L240.921 228.617L243.056 228.412L244.923 225.644L246.791 225.542L247.645 224.209L247.804 220.621L249.032 219.184V218.21L249.672 218.057L251.806 216.11L252.446 215.084L252.553 213.444V213.407L251.175 212.745L249.693 211.488Z" fill="white"/>
<path opacity="0.4" d="M270.501 201.509L267.959 198.118L263.656 192.053L260.164 186.291L254.386 182.327L243.672 179.213L238.149 177.853L234.618 176.821L232.571 173.644L231.982 169.691L230.97 164.416L231.219 162.978L229.916 161.728L228.099 160.386L223.616 157.454L220.772 154.588L215.185 153.508L210.489 151.867L206.56 150.655L202.67 149.882L200.427 150.84L198.631 152.829L195.534 155.669L193.98 157.558L195.631 158.722L196.812 163.823L198.929 169.111L201.061 174.984L204.467 182.48L206.629 187.745L207.627 190.972L210.046 190.862L213.266 190.048L215.702 197.068L217.766 199.847L221.299 203.895L223.433 204.256H226.574L231.157 203.189L235.156 201.731L237.61 199.898L238.834 198.722L241.287 199.312L243.392 198.68L245.437 197.942L245.106 202.078L247.076 203.214L248.106 205.474L249.852 207.151L250.842 210.822L251.914 211.737L252.663 212.098L252.672 211.978L254.646 210.645H256.188L259.389 210.491L262.751 210.594L265.205 211.361L267.553 213.565H268.513L269.212 212.847L269.692 211.873L270.39 209.669L271.986 209.208L274.334 207.159L274.343 206.889L273.258 206.107L270.501 201.509Z" fill="white"/>
<path opacity="0.4" d="M172.926 209.771L172.8 206.96L170.081 205.001L168.543 202.193L167.914 198.456L165.502 198.786L161.089 199.078L154.705 193.091L155.512 191.695L155.042 190.455L153.71 186.052L153.958 184.381L153.21 183.878L151.873 184.704V186.214H148.438L143.14 184.741L140.405 185.661L138.086 185.8L135.269 186.37L132.026 185.436L130.917 183.625L130.133 184.453L128.896 186.679L125.059 187.564L121.79 188.218L119.559 190.093L116.33 191.361L112.428 192.641L112.333 192.375L110.915 194.962L114.706 193.676L116.984 194.771L117.128 196.841L119.428 198.086V201.141L116.864 202.438L117.506 204.286L119.216 206.18L121.196 207.448L120.865 209.354L121.441 211.566L120.942 213.496L122.366 214.474L126.196 213.908L129.817 218.692L131.513 220.474L131.638 223.382L131.967 224.328L134.848 226.839L137.195 229.146L137.088 231.76L137.836 232.58L139.863 233.093L140.561 232.272L141.682 231.965L143.229 232.016L143.442 231.452L145.79 230.837L147.017 230.119L148.03 230.58H150.964L152.512 230.375L153.579 229.299L156.087 229.196L156.514 228.43L157.048 227.251L157.208 225.56L158.006 224.74L161.048 223.869L163.769 223.51L164.836 222.998L165.264 221.614L166.597 219.973L168.624 218.18L169.692 216.898L169.745 215.461L171.341 215.256L172.638 215.095V212.741L172.926 209.771Z" fill="white"/>
<path opacity="0.4" d="M128.8 219.442L125.608 215.234L122.038 215.762L119.479 214.006L120.116 211.563L119.553 209.401L119.792 208.027L118.357 207.108L116.368 204.904L115.302 201.833L118.144 200.395V198.803L115.893 197.586L115.752 195.555L114.616 195.01L110.034 196.563L109.577 197.397L108.221 197.024L103.976 197.728L99.3102 194.544L94.4806 190.701L90.4063 190.309L90.4542 189.847L90.2377 189.885L88.7971 189.73L88.4769 190.345L88.9039 190.653L89.1173 193.42L90.4512 195.778V196.956L91.9985 199.621L97.7618 207.052L97.6551 207.667L96.9079 207.617L96.3741 207.924L96.3212 208.691L98.509 210.639L100.377 210.792L100.217 211.408L98.9899 211.561L98.4562 212.432L98.8293 213.15L99.1495 215.712L99.6294 216.019L100.377 216.891L101.444 218.274L102.142 219.453L102.996 219.504L105.451 221.861L105.393 223.506L106.033 224.177L107.421 226.278L108.119 227.97L108.439 230.532L108.493 233.761L118.204 234.017L118.311 233.346L118.898 231.86L119.752 230.579L121.4 230.166L123.747 230.063L124.334 229.705L125.83 227.399L126.898 225.246L128.072 224.118L129.726 222.479L130.301 222.088L130.252 220.97L128.8 219.442Z" fill="white"/>
<path opacity="0.4" d="M318.03 132.735L315.842 131.454L315.789 130.326L315.735 127.764V125.868L315.037 124.176L314.183 122.946L313.969 121.413L314.396 119.67L313.863 118.337L312.849 116.235L311.195 113.416L310.128 110.597L310.714 109.624L309.594 108.857L308.313 109.528L307.245 110.143L306.872 109.733L306.373 109.557L303.812 111.666L302.057 114.196L298.645 115.763L295.437 117.504L292.431 119.836L290.687 120.903L286.669 120.615L283.198 120.749L281.234 121.126L275.773 124.536L271.458 131.621L267.122 141.299L271.345 143.599L272.689 145.697L272.211 149.063L269.677 152.716V154.329L272.557 155.653L278.788 157.83L285.606 160.615L288.938 163.496V161.843L291.072 160.31L291.819 156.158L295.02 153.083L295.073 151.646L295.446 150.723L296.514 150.313L296.941 149.237L296.727 148.366L297.1 147.956L297.687 147.546L298.007 146.572L297.421 146.316L297.261 145.291L297.688 144.83L298.756 143.036L301.848 139.449L302.809 139.397L303.075 140.164L304.516 139.753L307.344 139.343L308.091 139.087L310.813 139.447L311.079 138.68L311.452 137.963L313.8 137.552L314.92 138.168L316.627 139.141V138.47L316.2 137.137L316.093 135.907L316.792 134.934L317.805 134.678L318.446 134.062L318.03 132.735Z" fill="white"/>
<path opacity="0.4" d="M100.109 193.582L104.283 196.428L108.292 195.764L108.928 195.939L111.217 191.762L109.738 191.325L107.272 188.512L105.669 184.592L104.208 180.524L104.06 178.115V173.977L103.93 171.364L101.756 169.153L98.8762 167.836L95.3256 165.954L89.4476 172.81L88.3691 174.88L86.3958 175.57L84.218 175.152L82.6028 175.496L81.5224 173.628L82.0012 172.249L79.7256 173.243L77.9658 170.847L76.4006 171.223L74.9879 170.273L73.3917 170.711L71.8523 171.746L69.7643 171.479L68.4395 172.602L66.9869 173.363L65.8426 174.718L63.9022 176.283L61.7683 177.484L59.9656 175.751L57.9773 173.547L57.8566 172.04L56.8091 171.857L53.6396 171.613L52.2499 172.306L52.0364 174.56L51.7701 175.893L50.543 177.072L49.689 178.046L49.3159 179.071L48.3023 179.276L47.3954 179.789L45.6875 179.738L45.1009 180.763L44.8874 182.096L45.4211 183.326L46.1195 184.3L46.0127 185.479L47.5601 186.811L48.3073 187.272L49.3747 187.017L49.8546 186.658L51.0817 187.017L52.4694 187.837L52.7896 189.067L51.9357 189.738L49.8546 190.866L49.695 191.481L50.0152 193.275L50.1748 195.53L49.9085 196.606L48.2544 196.913L47.5072 197.836L47.1341 199.369L46.6003 199.317L46.2801 200.291L47.0782 200.855L48.1985 201.88L49.3189 202.034L50.2796 201.267L50.3863 200.704L50.9729 199.525L51.7202 199.27L52.2539 200.141H53.1079L53.3214 199.47L54.335 199.316L55.0822 200.188H56.3631L56.9497 199.572L58.9241 198.394L59.4578 198.599L60.632 199.162L61.2725 200.136L62.6602 199.931L62.9265 199.418L63.8334 199.521L64.9537 199.06L66.6078 199.265L68.4215 201.264L70.6622 201.366L70.9285 200.29L69.9678 199.932L69.7543 199.165L70.8218 198.294L70.7151 196.09L71.3016 194.501L74.3434 194.809L76.5253 193.007V192.034L77.2725 191.521L78.6602 191.368L79.1939 190.601L80.848 188.705L81.9683 187.219L83.5645 186.501L85.6456 185.015L86.5524 185.271L89.3269 186.911L89.3797 188.602L90.0202 188.858H90.7185L90.9849 188.448L91.5186 188.601L91.4618 189.176L94.9964 189.516L100.109 193.582Z" fill="white"/>
<path opacity="0.4" d="M163.871 173.245L162.933 173.888L159.872 172.186L156.745 170.275L144.421 164.222L143.402 164.331L139.295 165.69L135.453 166.648L132.155 167.369L129.661 166.769L128.494 169.011L127.23 173.194L125.913 178.069L124.507 180.918L118.91 182.435L115.341 187.705L112.829 191.204L115.878 190.205L118.871 189.027L121.194 187.075L124.774 186.358L128.032 185.607L129.129 183.676L131.138 181.555L132.873 184.39L135.323 185.095L137.958 184.569L140.147 184.437L143.103 183.443L148.62 184.976H150.592V184.026L153.24 182.391L155.335 183.801L155.015 185.957L156.257 190.067L156.912 191.791L156.297 192.856L161.575 197.802L165.392 197.549L167.713 197.231L167.95 194.039V190.135L168.667 188.066L168.945 183.94L168.789 180.037L170.333 179.227L170.253 178.372L168.313 176.759L165.62 174.578L163.871 173.245Z" fill="white"/>
<path opacity="0.4" d="M146.958 79.5357L147.756 81.2797L147.528 83.6255L147.212 85.6732L149.652 89.2858L148.573 90.7816L148.721 92.9779L150.149 92.5745L152.981 95.545L152.597 97.6292L152.015 99.8053L151.576 100.65L151.94 102.662L153.42 104.556L151.857 106.519L151.767 108.086L152.276 110.167L149.711 111.744L150.789 113.814L154.754 117.33L157.918 118.212L160.037 118.848L160.137 119.675L162.621 118.597L167.432 118.603L172.184 119.212L176.053 119.116L177.958 118.253L180.752 117.026L184.061 117.979L187.852 117.585L189.632 117.264L193.251 117.686L196.025 118.069L198.333 116.728V111.948H197.435L195.502 113.31L194.316 111.845L193.596 110.067L192.317 109.069L191.178 109.525L190.129 109.222L187.596 110.357L186.039 108.046L185.731 105.873L184.328 104.608L181.948 101.56L182.03 99.998L180.558 100.132L176.72 100.87L172.188 99.8657L170.612 97.7461L166.979 97.3474L163.438 94.6749L164.945 91.7791L170.823 89.1574L170.945 88.5144L170.19 86.6487L170.372 85.9473L169.781 85.2842L169.929 82.9394L170.362 81.6084L168.107 78.8506L167.878 76.5508L167.479 74.6343L165.931 72.0567L164.604 69.9974L162.687 68.3684L162.266 65.7352L159.65 67.0202L158.39 67.7599L156.561 68.7124L153.502 69.2174H152.768L151.322 71.2019L148.801 71.7318L147.24 72.0193L146.409 73.563L146.885 76.9236L146.958 79.5357Z" fill="white"/>
<path opacity="0.4" d="M204.085 118.161L206.224 117.321L208.642 115.948L211.205 115.618H213.927L218.985 118.205L221.34 120.984L225.573 123.365L230.861 125.358L234.37 125.447L234.855 124.516L237.424 119.889L238.602 117.547L238.473 117.524L238.2 115.168L238.41 112.396L237.657 109.694L234.936 104.82L233.168 102.432L232.548 98.988L232.325 94.3473L234.183 91.2876L233.646 86.1284L229.599 88.6975L227.703 88.6352L225.421 92.265L223.794 92.1778L220.527 92.3694L218.831 93.0689L216.617 96.6144H214.68L213.208 95.9082L212.164 96.2129L211.082 100.441L209.251 100.712L208.735 103.187L205.774 106.387L202.307 109.701L199.605 111.432V116.389L202.345 117.893L204.085 118.161Z" fill="white"/>
<path opacity="0.4" d="M193.079 118.891L189.669 118.494L188.008 118.791L183.931 119.215L180.838 118.322L178.497 119.353L176.355 120.328L172.113 120.435L167.303 119.819H162.894L160.282 120.952L160.331 121.377L158.687 122.956L158.58 125.006L156.655 126.856L155.751 128.417L157.458 129.391L157.426 129.429L159.011 130.421L160.238 131.621L160.648 132.246L161.186 131.692L163.481 130.932L165.929 130.775L166.907 131.445L169.578 131.116L174.905 132.841L176.746 134.532L177.562 136.523H178.604L180.625 135.529L183.535 134.622L186.192 136.155L186.42 138.128L187.156 139.024L189.75 136.653L191.262 134.939L192.774 133.865L193.296 132.863L193.673 129.82L196.057 128.266L197.501 128.209L198.105 126.409L199.811 124.088L200.011 123.483L198.558 122.342L198.37 118.126L196.298 119.334L193.079 118.891Z" fill="white"/>
<path opacity="0.4" d="M233.74 126.662L230.604 126.582L224.968 124.451L220.492 121.935L218.153 119.177L213.606 116.848H211.248L209.071 117.135L206.752 118.444L204.238 119.432L201.917 119.08L199.634 117.827L199.808 121.743L201.486 123.062L200.972 124.644L199.263 126.97L198.449 129.401L196.477 129.479L194.881 130.522L194.547 133.22L193.788 134.678L192.092 135.883L190.668 137.518L188.074 139.895L188.583 140.351L188.659 142.762L189.224 144.227L190.381 144.566L192.282 144.074L194.065 144.912L195.182 142.855L196.929 141.177L201.626 141.105L203.821 141.25L208.898 143.27L214.212 145.175L220.29 147.211L223.189 147.908L224.83 148.779L226.419 145.203L231.818 134.164L234.82 128.142L234.952 127.325L233.738 126.684L233.74 126.662Z" fill="white"/>
</g>
<g filter="url(#filter1_d_72_165)">
<path d="M62.8188 186.523H78.1524C78.326 186.523 78.4128 186.449 78.4128 186.301V181.799C78.4191 181.548 78.3708 181.299 78.2712 181.067C78.1716 180.835 78.0227 180.625 77.8342 180.452C77.6528 180.277 77.4367 180.139 77.1986 180.045C76.9606 179.952 76.7055 179.906 76.4484 179.909H60.1282C60.0968 179.905 60.0647 179.908 60.0346 179.917C60.0044 179.927 59.977 179.943 59.9546 179.965C59.9321 179.986 59.9152 180.013 59.9052 180.042C59.8951 180.071 59.8922 180.101 59.8968 180.132V182.16C59.8968 182.327 59.9739 182.41 60.1282 182.41H75.4618V184.022H60.1282C59.9739 184.022 59.8968 184.105 59.8968 184.272V188.746C59.8908 188.998 59.9376 189.248 60.0345 189.482C60.1313 189.716 60.2762 189.929 60.4604 190.108C60.6413 190.289 60.8596 190.432 61.1013 190.528C61.3429 190.624 61.6027 190.67 61.8641 190.664H78.1524C78.1878 190.668 78.2238 190.665 78.2577 190.654C78.2915 190.644 78.3223 190.625 78.3475 190.601C78.3728 190.577 78.3918 190.547 78.4031 190.515C78.4145 190.482 78.4178 190.448 78.4128 190.414V188.385C78.4128 188.237 78.326 188.163 78.1524 188.163H62.8188V186.523ZM81.275 171.575H78.4128V167.323C78.4128 167.175 78.326 167.101 78.1524 167.101H75.7222C75.5486 167.101 75.4618 167.175 75.4618 167.323V178.464C75.4568 178.498 75.4601 178.533 75.4714 178.565C75.4827 178.598 75.5018 178.628 75.527 178.652C75.5523 178.676 75.583 178.694 75.6169 178.705C75.6508 178.716 75.6868 178.719 75.7222 178.714H78.1524C78.1878 178.719 78.2238 178.716 78.2577 178.705C78.2915 178.694 78.3223 178.676 78.3475 178.652C78.3728 178.628 78.3918 178.598 78.4031 178.565C78.4145 178.533 78.4178 178.498 78.4128 178.464V174.213H81.277C81.3084 174.217 81.3405 174.214 81.3706 174.205C81.4007 174.195 81.4281 174.179 81.4506 174.157C81.4731 174.136 81.49 174.109 81.5 174.08C81.51 174.051 81.5129 174.021 81.5084 173.99V171.795C81.5129 171.765 81.51 171.734 81.5 171.705C81.49 171.676 81.4731 171.65 81.4506 171.628C81.4281 171.607 81.4007 171.59 81.3706 171.581C81.3405 171.571 81.3084 171.568 81.277 171.573L81.275 171.575ZM62.1245 178.103C63.0046 178.367 63.922 178.498 64.844 178.492C65.7574 178.497 66.6661 178.366 67.5376 178.103C67.9342 177.977 68.3209 177.823 68.6949 177.644C69.0538 177.473 69.3851 177.253 69.6785 176.992C70.293 176.468 70.778 175.819 71.0978 175.093C71.4177 174.366 71.5643 173.58 71.5271 172.792C71.5323 172.022 71.385 171.258 71.0932 170.541C70.7949 169.821 70.3182 169.182 69.7045 168.679C69.0767 168.164 68.3491 167.773 67.5635 167.529C66.686 167.253 65.7673 167.117 64.844 167.126C63.0873 167.029 61.3558 167.564 59.9875 168.627C59.3718 169.142 58.8851 169.784 58.5638 170.505C58.2425 171.227 58.0948 172.008 58.1319 172.792C58.0931 173.573 58.2366 174.353 58.5519 175.074C58.8673 175.795 59.3465 176.44 59.9546 176.96C60.5838 177.487 61.3239 177.876 62.1245 178.103V178.103ZM61.8641 170.711C62.727 170.113 63.7828 169.827 64.844 169.905C65.8962 169.831 66.9391 170.138 67.7661 170.768C68.0593 171.022 68.2895 171.336 68.4397 171.687C68.5899 172.039 68.6563 172.417 68.634 172.796C68.6603 173.181 68.5989 173.567 68.454 173.927C68.3091 174.287 68.0842 174.613 67.795 174.881C66.9471 175.489 65.8999 175.785 64.844 175.714C63.7789 175.787 62.7217 175.492 61.8641 174.881C61.5742 174.612 61.349 174.286 61.204 173.925C61.0591 173.564 60.998 173.177 61.0251 172.792C60.9994 172.407 61.0611 172.022 61.206 171.663C61.3509 171.303 61.5754 170.979 61.8641 170.711V170.711ZM99.1485 186.453H91.0029V179.883C91.0057 179.856 91.0022 179.829 90.9928 179.804C90.9833 179.78 90.968 179.757 90.9481 179.738C90.9282 179.72 90.9042 179.706 90.8779 179.698C90.8517 179.69 90.8238 179.687 90.7964 179.691H88.8689C88.7466 179.691 88.6854 179.757 88.6854 179.889V186.453H82.2836C82.1612 186.453 82.1 186.519 82.1 186.652V188.371C82.1 188.503 82.1612 188.569 82.2836 188.569H99.1485C99.1766 188.573 99.2052 188.57 99.2321 188.562C99.2589 188.553 99.2834 188.539 99.3034 188.519C99.3234 188.5 99.3385 188.477 99.3475 188.451C99.3565 188.425 99.359 188.398 99.355 188.371V186.652C99.359 186.625 99.3565 186.597 99.3475 186.571C99.3385 186.545 99.3234 186.522 99.3034 186.503C99.2834 186.484 99.2589 186.469 99.2321 186.46C99.2052 186.452 99.1766 186.449 99.1485 186.453V186.453ZM83.4319 171.775V173.604C83.4319 173.736 83.493 173.803 83.6154 173.803H95.7027V182.795C95.7027 182.927 95.7639 182.993 95.8863 182.993H97.8366C97.959 182.993 98.0202 182.927 98.0202 182.795V173.097C98.0249 172.898 97.9878 172.699 97.911 172.514C97.8342 172.328 97.7194 172.159 97.5733 172.017C97.4296 171.874 97.2564 171.76 97.0648 171.685C96.8731 171.609 96.6672 171.572 96.4599 171.577H83.6144C83.4927 171.577 83.4319 171.643 83.4319 171.775ZM63.0044 204.39C63.4282 205.065 63.9368 205.687 64.5188 206.242C65.4882 207.15 66.604 207.901 67.8229 208.468C67.8444 208.482 67.8689 208.491 67.8946 208.495C67.9204 208.499 67.9467 208.497 67.9716 208.49C68.0236 208.476 68.0687 208.445 68.0983 208.402L68.9243 206.749C68.9855 206.646 68.9549 206.565 68.8325 206.506C67.1228 205.763 65.7071 204.511 64.7941 202.936C64.5334 202.509 64.3474 202.044 64.2434 201.559C64.1822 201.184 64.1516 200.982 64.1516 200.952V199.564C64.1516 199.432 64.0905 199.365 63.9681 199.365H62.0636C62.0356 199.362 62.007 199.364 61.9801 199.373C61.9532 199.381 61.9288 199.396 61.9087 199.415C61.8887 199.434 61.8736 199.458 61.8646 199.484C61.8557 199.509 61.8531 199.537 61.8571 199.564V200.974C61.855 201.153 61.8319 201.33 61.7883 201.503C61.6798 201.96 61.5182 202.404 61.3064 202.826C61.149 203.121 60.9685 203.404 60.7667 203.674C60.5174 204.006 60.2412 204.32 59.9406 204.611C59.5789 204.961 59.1875 205.281 58.7704 205.569C58.2718 205.912 57.7461 206.218 57.1982 206.483C57.1505 206.508 57.1143 206.549 57.0972 206.598C57.0801 206.647 57.0834 206.701 57.1064 206.748L57.9324 208.401C57.9936 208.518 58.0854 208.54 58.2078 208.467C59.4259 207.899 60.5414 207.148 61.5119 206.241C62.0937 205.691 62.5957 205.069 63.0044 204.39ZM64.1516 200.974V200.952V200.974ZM73.261 210.163H58.966C58.8436 210.163 58.7824 210.229 58.7824 210.361V212.079C58.7824 212.212 58.8436 212.278 58.966 212.278H73.261C73.2891 212.282 73.3177 212.279 73.3445 212.27C73.3714 212.262 73.3958 212.247 73.4159 212.228C73.4359 212.209 73.451 212.185 73.46 212.16C73.4689 212.134 73.4715 212.106 73.4675 212.079V210.363C73.4719 210.336 73.4695 210.308 73.4607 210.282C73.4519 210.256 73.4369 210.233 73.4168 210.213C73.3967 210.194 73.3722 210.179 73.3451 210.17C73.3181 210.161 73.2893 210.159 73.261 210.163V210.163ZM73.261 215.651H71.6319L71.8843 212.984C71.9155 212.852 71.8544 212.786 71.7007 212.786H69.7733C69.7484 212.782 69.723 212.784 69.6991 212.792C69.6753 212.8 69.6536 212.813 69.6358 212.83C69.618 212.847 69.6046 212.868 69.5966 212.891C69.5886 212.914 69.5862 212.938 69.5897 212.962L69.2904 215.651H62.9585L62.6592 212.962C62.6627 212.938 62.6603 212.914 62.6523 212.891C62.6443 212.868 62.6309 212.847 62.6131 212.83C62.5953 212.813 62.5737 212.8 62.5498 212.792C62.5259 212.784 62.5005 212.782 62.4756 212.786H60.5492C60.5212 212.782 60.4926 212.784 60.4657 212.793C60.4388 212.801 60.4144 212.816 60.3943 212.835C60.3743 212.854 60.3592 212.878 60.3502 212.904C60.3413 212.93 60.3387 212.957 60.3427 212.984L60.618 215.651H58.966C58.8436 215.651 58.7824 215.717 58.7824 215.849V217.57C58.7824 217.702 58.8436 217.768 58.966 217.768H73.261C73.2891 217.772 73.3177 217.77 73.3445 217.761C73.3714 217.753 73.3958 217.738 73.4159 217.719C73.4359 217.7 73.451 217.676 73.46 217.65C73.4689 217.624 73.4715 217.597 73.4675 217.57V215.851C73.4715 215.824 73.4689 215.797 73.46 215.771C73.451 215.745 73.4359 215.721 73.4159 215.702C73.3958 215.683 73.3714 215.668 73.3445 215.66C73.3177 215.651 73.2891 215.649 73.261 215.653V215.651ZM73.261 199.073H71.3336C71.1959 199.073 71.1271 199.132 71.1271 199.249V208.864C71.1231 208.891 71.1257 208.919 71.1346 208.945C71.1436 208.971 71.1587 208.994 71.1787 209.013C71.1988 209.032 71.2232 209.047 71.2501 209.056C71.2769 209.064 71.3055 209.067 71.3336 209.063H73.261C73.2891 209.067 73.3177 209.064 73.3445 209.056C73.3714 209.047 73.3958 209.032 73.4159 209.013C73.4359 208.994 73.451 208.971 73.46 208.945C73.4689 208.919 73.4715 208.891 73.4675 208.864V199.255C73.4675 199.138 73.3987 199.079 73.261 199.079V199.073ZM86.6692 204.631C87.8849 204.641 89.0993 204.553 90.2995 204.367C91.2647 204.219 92.2105 203.972 93.1208 203.631C93.9582 203.303 94.7021 202.789 95.2907 202.13C95.8972 201.471 96.2271 200.619 96.2165 199.74C96.2115 199.45 96.1781 199.162 96.1167 198.878C96.0363 198.513 95.8894 198.165 95.6828 197.85C95.4258 197.459 95.1086 197.107 94.742 196.808C94.263 196.425 93.7261 196.113 93.1498 195.885C91.0792 195.14 88.8745 194.8 86.6652 194.885C85.469 194.876 84.274 194.96 83.0917 195.135C82.1234 195.274 81.1763 195.526 80.2714 195.885C79.6673 196.111 79.1055 196.43 78.6083 196.83C78.2368 197.133 77.915 197.489 77.6536 197.884C77.4488 198.196 77.302 198.539 77.2196 198.899C77.1578 199.178 77.1244 199.462 77.1198 199.747C77.1207 200.619 77.4382 201.465 78.0177 202.137C78.6062 202.777 79.3382 203.28 80.1586 203.609C82.2346 204.37 84.4488 204.721 86.6692 204.642V204.631ZM86.6692 197.656C87.6903 197.647 88.7107 197.711 89.7219 197.848C90.5019 197.947 91.2652 198.143 91.9925 198.431C92.2613 198.547 92.5181 198.686 92.7597 198.848C92.9149 198.951 93.0517 199.078 93.1647 199.224C93.2375 199.313 93.2871 199.418 93.3094 199.529C93.3179 199.599 93.3226 199.668 93.3234 199.738C93.3234 199.794 93.3187 199.868 93.3094 199.961C93.2894 200.077 93.2397 200.186 93.1647 200.28C93.0499 200.427 92.9135 200.558 92.7597 200.669C92.5152 200.839 92.2464 200.974 91.9616 201.071C90.2667 201.66 88.468 201.925 86.6672 201.849C84.8473 201.927 83.0292 201.663 81.3149 201.071C81.0449 200.973 80.7915 200.838 80.5627 200.669C80.415 200.556 80.2835 200.425 80.1716 200.28C80.0966 200.186 80.0469 200.077 80.0269 199.961C80.0176 199.868 80.013 199.794 80.013 199.738C80.013 199.257 80.4759 198.821 81.4017 198.432C83.0901 197.855 84.8785 197.595 86.6692 197.666V197.656ZM76.0225 205.947H97.287C97.3223 205.942 97.3583 205.945 97.3922 205.956C97.4261 205.967 97.4568 205.985 97.4821 206.009C97.5073 206.034 97.5264 206.063 97.5377 206.096C97.549 206.128 97.5523 206.163 97.5473 206.197V208.364C97.5523 208.398 97.549 208.433 97.5377 208.465C97.5264 208.498 97.5073 208.527 97.4821 208.552C97.4568 208.576 97.4261 208.594 97.3922 208.605C97.3583 208.616 97.3223 208.619 97.287 208.614H76.0225C75.8682 208.614 75.791 208.531 75.791 208.364V206.198C75.791 206.03 75.8682 205.947 76.0225 205.947ZM80.1886 215.784H95.8404C95.8757 215.779 95.9118 215.782 95.9456 215.793C95.9795 215.804 96.0103 215.822 96.0355 215.847C96.0608 215.871 96.0798 215.9 96.0911 215.933C96.1025 215.965 96.1058 216 96.1008 216.034V218.203C96.1058 218.236 96.1025 218.271 96.0911 218.304C96.0798 218.336 96.0608 218.366 96.0355 218.39C96.0103 218.414 95.9795 218.432 95.9456 218.443C95.9118 218.454 95.8757 218.457 95.8404 218.453H79.2338C78.9725 218.459 78.7127 218.413 78.471 218.317C78.2293 218.221 78.0111 218.078 77.8302 217.897C77.6459 217.718 77.501 217.505 77.4042 217.271C77.3074 217.037 77.2605 216.787 77.2665 216.535V210.338C77.2665 210.172 77.3437 210.088 77.498 210.088H79.9282C79.9635 210.083 79.9996 210.087 80.0334 210.097C80.0673 210.108 80.0981 210.127 80.1233 210.151C80.1486 210.175 80.1676 210.205 80.1789 210.237C80.1903 210.27 80.1935 210.304 80.1886 210.338V215.784Z" fill="#070707"/>
</g>
<g filter="url(#filter2_d_72_165)">
<path d="M141.21 169.498H136.768C136.711 169.49 136.652 169.495 136.597 169.513C136.542 169.531 136.492 169.56 136.451 169.6C136.41 169.639 136.379 169.687 136.361 169.74C136.342 169.793 136.337 169.849 136.345 169.904V184.886H125.347C125.03 184.886 124.871 185.022 124.871 185.293V189.305C124.871 189.576 125.03 189.711 125.347 189.711H136.345V212.108C136.345 212.413 136.486 212.565 136.768 212.565H141.21C141.274 212.574 141.34 212.568 141.402 212.548C141.464 212.528 141.52 212.495 141.566 212.451C141.613 212.406 141.647 212.352 141.668 212.293C141.689 212.233 141.695 212.17 141.686 212.108V169.904C141.686 169.634 141.527 169.498 141.21 169.498ZM125.189 198.599C124.519 197.617 123.832 196.499 123.127 195.245C122.395 193.935 121.759 192.577 121.223 191.182C120.644 189.678 120.183 188.133 119.845 186.562C119.49 184.908 119.313 183.223 119.317 181.535V170.611C119.317 170.306 119.176 170.154 118.894 170.154H114.504C114.439 170.145 114.374 170.15 114.312 170.17C114.25 170.19 114.194 170.224 114.147 170.268C114.101 170.312 114.066 170.366 114.046 170.426C114.025 170.485 114.019 170.549 114.028 170.611V181.535C114.032 183.223 113.855 184.908 113.499 186.562C113.163 188.134 112.703 189.679 112.125 191.184C111.589 192.579 110.953 193.937 110.221 195.247C109.521 196.503 108.835 197.62 108.163 198.599C107.142 200.165 105.993 201.651 104.726 203.042C103.632 204.212 102.874 204.999 102.453 205.404C102.404 205.44 102.364 205.486 102.337 205.539C102.31 205.592 102.296 205.65 102.296 205.709C102.296 205.768 102.31 205.826 102.337 205.879C102.364 205.932 102.404 205.978 102.453 206.014L103.933 207.588L105.414 209.109C105.625 209.346 105.854 209.346 106.101 209.109C106.559 208.669 107.396 207.797 108.612 206.493C110.045 204.915 111.362 203.244 112.552 201.49C113.362 200.237 114.12 198.991 114.825 197.753C115.524 196.53 116.142 195.267 116.676 193.97C117.21 195.267 117.828 196.53 118.527 197.753C119.232 198.989 120.007 200.235 120.853 201.49C122.016 203.25 123.317 204.922 124.744 206.493C125.96 207.797 126.814 208.669 127.308 209.109C127.519 209.38 127.731 209.38 127.942 209.109L130.899 206.014C130.948 205.978 130.988 205.932 131.015 205.879C131.042 205.826 131.056 205.768 131.056 205.709C131.056 205.65 131.042 205.592 131.015 205.539C130.988 205.486 130.948 205.44 130.899 205.404C130.476 204.999 129.718 204.212 128.625 203.042C127.358 201.651 126.209 200.165 125.189 198.599V198.599ZM158.477 193.335C159.831 193.346 161.184 193.261 162.526 193.082C163.588 192.941 164.635 192.708 165.654 192.387C166.564 192.073 167.394 191.577 168.09 190.932C168.441 190.604 168.719 190.21 168.905 189.775C169.092 189.34 169.184 188.873 169.176 188.402C169.17 188.099 169.131 187.796 169.061 187.501C168.97 187.122 168.808 186.763 168.583 186.441C168.293 186.032 167.938 185.67 167.532 185.367C166.974 184.957 166.352 184.637 165.689 184.418C163.36 183.707 160.921 183.386 158.479 183.469C157.152 183.462 155.826 183.541 154.511 183.706C153.44 183.835 152.385 184.074 151.367 184.418C150.451 184.725 149.61 185.209 148.897 185.841C148.537 186.181 148.247 186.583 148.041 187.026C147.843 187.46 147.741 187.928 147.742 188.402C147.748 188.705 147.787 189.007 147.857 189.303C147.95 189.684 148.12 190.044 148.356 190.363C148.653 190.767 149.014 191.124 149.425 191.423C149.986 191.822 150.608 192.137 151.269 192.356C153.593 193.086 156.033 193.417 158.477 193.335V193.335ZM158.477 186.628C159.771 186.604 161.065 186.689 162.344 186.881C163.076 186.995 163.797 187.165 164.501 187.386C164.841 187.487 165.163 187.636 165.456 187.829C165.741 188.021 165.884 188.211 165.884 188.398C165.884 188.586 165.736 188.77 165.44 188.951C165.142 189.131 164.828 189.285 164.501 189.41C163.665 189.671 162.806 189.856 161.933 189.963C160.788 190.109 159.632 190.178 158.477 190.169C157.171 190.193 155.866 190.108 154.576 189.916C153.844 189.802 153.123 189.632 152.419 189.41C152.294 189.376 152.172 189.331 152.057 189.273C151.903 189.2 151.75 189.121 151.596 189.037C151.45 188.958 151.316 188.862 151.197 188.749C151.146 188.705 151.105 188.651 151.077 188.592C151.049 188.532 151.033 188.467 151.032 188.401C151.032 188.273 151.153 188.115 151.394 187.927C151.734 187.689 152.112 187.507 152.514 187.389C153.345 187.107 154.206 186.916 155.082 186.82C156.208 186.687 157.342 186.624 158.477 186.631V186.628ZM170.559 194.217C170.6 194.211 170.641 194.214 170.681 194.226C170.72 194.239 170.755 194.26 170.784 194.288C170.814 194.316 170.835 194.35 170.848 194.387C170.861 194.425 170.865 194.465 170.858 194.504V196.971C170.865 197.01 170.861 197.05 170.848 197.088C170.835 197.125 170.814 197.159 170.784 197.187C170.755 197.215 170.72 197.236 170.681 197.249C170.641 197.261 170.6 197.264 170.559 197.258H159.958V198.491H166.942C167.234 198.483 167.526 198.534 167.796 198.644C168.066 198.753 168.308 198.917 168.506 199.124C168.907 199.534 169.126 200.079 169.114 200.642V205.543C169.12 205.578 169.116 205.613 169.105 205.646C169.094 205.679 169.074 205.708 169.049 205.733C169.023 205.758 168.992 205.776 168.958 205.787C168.923 205.798 168.887 205.801 168.851 205.796H151.102V207.439H168.847C169.023 207.439 169.11 207.534 169.11 207.726V210C169.116 210.034 169.112 210.069 169.101 210.102C169.09 210.135 169.07 210.165 169.045 210.19C169.019 210.214 168.988 210.233 168.954 210.244C168.919 210.255 168.883 210.258 168.847 210.253H149.983C149.69 210.257 149.399 210.205 149.127 210.099C148.856 209.993 148.609 209.835 148.403 209.636C148.188 209.438 148.019 209.2 147.905 208.936C147.792 208.672 147.737 208.388 147.744 208.103V203.233C147.744 203.064 147.844 202.98 148.043 202.98H165.851V201.336H148.04C148 201.342 147.958 201.338 147.919 201.326C147.88 201.314 147.844 201.293 147.815 201.265C147.786 201.237 147.764 201.202 147.751 201.165C147.738 201.127 147.735 201.087 147.741 201.048V198.774C147.735 198.735 147.738 198.695 147.751 198.657C147.764 198.62 147.786 198.586 147.815 198.558C147.844 198.53 147.88 198.509 147.919 198.496C147.958 198.484 148 198.481 148.04 198.487H156.633V197.256H146.357C146.182 197.256 146.094 197.161 146.094 196.969V194.505C146.094 194.314 146.182 194.218 146.357 194.218L170.559 194.217ZM212.32 186.508H173.457C173.175 186.508 173.034 186.66 173.034 186.965V190.926C173.034 191.231 173.175 191.383 173.457 191.383H189.954V193.669H176.154C176.089 193.66 176.023 193.666 175.961 193.686C175.899 193.705 175.843 193.739 175.797 193.783C175.751 193.827 175.716 193.881 175.695 193.941C175.675 194 175.669 194.064 175.678 194.126V197.782C175.669 197.844 175.675 197.908 175.695 197.967C175.716 198.027 175.751 198.081 175.797 198.125C175.843 198.169 175.899 198.203 175.961 198.223C176.023 198.243 176.089 198.248 176.154 198.239H204.759V200.88H176.154C175.836 200.88 175.678 201.016 175.678 201.287V209.109C175.666 209.567 175.754 210.023 175.936 210.448C176.118 210.872 176.39 211.255 176.735 211.572C177.068 211.893 177.463 212.145 177.899 212.315C178.336 212.485 178.803 212.569 179.273 212.562H209.676C209.733 212.57 209.792 212.565 209.847 212.547C209.902 212.53 209.952 212.5 209.993 212.461C210.034 212.421 210.065 212.373 210.084 212.32C210.102 212.267 210.107 212.211 210.099 212.156V208.502C210.099 208.197 209.958 208.045 209.676 208.045H181.071V205.404H209.676C209.733 205.412 209.792 205.407 209.847 205.389C209.902 205.372 209.952 205.342 209.993 205.303C210.034 205.263 210.065 205.215 210.084 205.162C210.102 205.109 210.107 205.053 210.099 204.998V197.126C210.106 196.674 210.019 196.225 209.842 195.806C209.665 195.388 209.402 195.007 209.068 194.688C208.738 194.357 208.339 194.096 207.898 193.921C207.457 193.746 206.982 193.661 206.505 193.673H195.294V191.387H212.32C212.384 191.396 212.45 191.39 212.512 191.37C212.574 191.35 212.63 191.317 212.676 191.273C212.723 191.228 212.757 191.174 212.778 191.115C212.799 191.055 212.805 190.992 212.796 190.93V186.969C212.805 186.907 212.799 186.843 212.778 186.784C212.757 186.724 212.723 186.67 212.676 186.626C212.63 186.582 212.574 186.548 212.512 186.528C212.45 186.509 212.384 186.503 212.32 186.512V186.508ZM179.273 184.226H206.509C206.986 184.237 207.46 184.153 207.902 183.978C208.343 183.803 208.742 183.542 209.072 183.21C209.406 182.891 209.669 182.511 209.846 182.092C210.023 181.673 210.11 181.225 210.103 180.773V172.952C210.115 172.495 210.03 172.041 209.853 171.618C209.676 171.194 209.41 170.81 209.072 170.489C208.738 170.164 208.338 169.909 207.897 169.739C207.456 169.568 206.984 169.486 206.509 169.498H179.273C178.802 169.492 178.335 169.576 177.899 169.747C177.463 169.918 177.067 170.171 176.735 170.492C176.391 170.809 176.119 171.192 175.936 171.616C175.754 172.04 175.666 172.496 175.678 172.954V180.776C175.671 181.23 175.762 181.68 175.944 182.1C176.126 182.519 176.395 182.898 176.735 183.213C177.064 183.54 177.459 183.798 177.895 183.972C178.332 184.146 178.801 184.233 179.273 184.226V184.226ZM181.069 179.351V174.325H204.757V179.353L181.069 179.351ZM228.363 184.566H216.904C216.865 184.561 216.825 184.565 216.788 184.577C216.75 184.589 216.716 184.609 216.689 184.636C216.661 184.662 216.64 184.695 216.627 184.731C216.615 184.767 216.611 184.805 216.617 184.842V187.418C216.617 187.582 216.712 187.663 216.904 187.663H227.279C227.213 188.297 227.096 189.084 226.928 190.025C226.736 191.054 226.486 192.072 226.178 193.076C225.824 194.233 225.386 195.365 224.869 196.464C224.307 197.661 223.623 198.801 222.826 199.868C221.978 201.002 220.999 202.041 219.908 202.965C218.719 203.963 217.386 204.789 215.949 205.418C215.779 205.459 215.736 205.571 215.821 205.755L216.907 208.085C216.973 208.269 217.09 208.32 217.258 208.239C218.975 207.499 220.567 206.517 221.983 205.326C223.279 204.229 224.441 202.994 225.447 201.646C226.393 200.375 227.191 199.007 227.825 197.568C228.412 196.235 228.912 194.867 229.321 193.474C229.682 192.255 229.964 191.016 230.167 189.764C230.348 188.609 230.471 187.623 230.535 186.805C230.559 186.52 230.52 186.233 230.421 185.964C230.322 185.695 230.165 185.448 229.96 185.241C229.761 185.024 229.515 184.851 229.24 184.734C228.964 184.618 228.666 184.56 228.365 184.566H228.363ZM241.292 194.685H238.131V184.413C238.137 184.38 238.133 184.346 238.122 184.314C238.111 184.282 238.093 184.253 238.068 184.229C238.043 184.205 238.013 184.187 237.979 184.177C237.946 184.166 237.911 184.163 237.876 184.168H235.194C235.003 184.168 234.907 184.25 234.907 184.413V209.895C234.902 209.932 234.905 209.97 234.918 210.006C234.93 210.042 234.951 210.075 234.979 210.101C235.007 210.128 235.041 210.148 235.078 210.16C235.116 210.172 235.155 210.176 235.194 210.171H237.876C238.046 210.171 238.131 210.079 238.131 209.895V197.629H241.292C241.331 197.634 241.371 197.631 241.408 197.619C241.445 197.607 241.479 197.587 241.507 197.56C241.535 197.533 241.556 197.501 241.569 197.465C241.581 197.429 241.585 197.391 241.579 197.353V194.958C241.584 194.921 241.58 194.883 241.567 194.848C241.554 194.813 241.534 194.781 241.506 194.754C241.479 194.728 241.445 194.708 241.408 194.696C241.372 194.684 241.332 194.681 241.294 194.685H241.292Z" fill="#070707"/>
</g>
<g filter="url(#filter3_d_72_165)">
<path d="M125.869 140.404V130.077H202.408V140.404H125.869ZM109.924 119.75V109.424H218.354V119.75H109.924ZM104.609 99.0973V88.7703H223.67V99.0973H104.609ZM99.2932 78.4443V68.1174H133.312V44.3665H143.941V68.1174H184.869V44.3665H195.499V68.1174H228.985V78.4443H99.2932ZM143.941 44.3665V34.0396H184.869V44.3665H143.941Z" fill="#0C0C0C"/>
</g>
<defs>
<filter id="filter0_d_72_165" x="2.97537" y="2.72253" width="322.048" height="240.807" filterUnits="userSpaceOnUse" color-interpolation-filters="sRGB">
<feFlood flood-opacity="0" result="BackgroundImageFix"/>
<feColorMatrix in="SourceAlpha" type="matrix" values="0 0 0 0 0 0 0 0 0 0 0 0 0 0 0 0 0 0 127 0" result="hardAlpha"/>
<feOffset dy="3"/>
<feGaussianBlur stdDeviation="3"/>
<feColorMatrix type="matrix" values="0 0 0 0 0 0 0 0 0 0 0 0 0 0 0 0 0 0 0.161 0"/>
<feBlend mode="normal" in2="BackgroundImageFix" result="effect1_dropShadow_72_165"/>
<feBlend mode="normal" in="SourceGraphic" in2="effect1_dropShadow_72_165" result="shape"/>
</filter>
<filter id="filter1_d_72_165" x="51.0864" y="164.101" width="54.2704" height="63.3541" filterUnits="userSpaceOnUse" color-interpolation-filters="sRGB">
<feFlood flood-opacity="0" result="BackgroundImageFix"/>
<feColorMatrix in="SourceAlpha" type="matrix" values="0 0 0 0 0 0 0 0 0 0 0 0 0 0 0 0 0 0 127 0" result="hardAlpha"/>
<feOffset dy="3"/>
<feGaussianBlur stdDeviation="3"/>
<feColorMatrix type="matrix" values="0 0 0 0 0 0 0 0 0 0 0 0 0 0 0 0 0 0 0.161 0"/>
<feBlend mode="normal" in2="BackgroundImageFix" result="effect1_dropShadow_72_165"/>
<feBlend mode="normal" in="SourceGraphic" in2="effect1_dropShadow_72_165" result="shape"/>
</filter>
<filter id="filter2_d_72_165" x="96.2957" y="166.495" width="151.286" height="55.0746" filterUnits="userSpaceOnUse" color-interpolation-filters="sRGB">
<feFlood flood-opacity="0" result="BackgroundImageFix"/>
<feColorMatrix in="SourceAlpha" type="matrix" values="0 0 0 0 0 0 0 0 0 0 0 0 0 0 0 0 0 0 127 0" result="hardAlpha"/>
<feOffset dy="3"/>
<feGaussianBlur stdDeviation="3"/>
<feColorMatrix type="matrix" values="0 0 0 0 0 0 0 0 0 0 0 0 0 0 0 0 0 0 0.161 0"/>
<feBlend mode="normal" in2="BackgroundImageFix" result="effect1_dropShadow_72_165"/>
<feBlend mode="normal" in="SourceGraphic" in2="effect1_dropShadow_72_165" result="shape"/>
</filter>
<filter id="filter3_d_72_165" x="93.2932" y="31.0396" width="141.692" height="118.365" filterUnits="userSpaceOnUse" color-interpolation-filters="sRGB">
<feFlood flood-opacity="0" result="BackgroundImageFix"/>
<feColorMatrix in="SourceAlpha" type="matrix" values="0 0 0 0 0 0 0 0 0 0 0 0 0 0 0 0 0 0 127 0" result="hardAlpha"/>
<feOffset dy="3"/>
<feGaussianBlur stdDeviation="3"/>
<feColorMatrix type="matrix" values="0 0 0 0 0 0 0 0 0 0 0 0 0 0 0 0 0 0 0.122 0"/>
<feBlend mode="normal" in2="BackgroundImageFix" result="effect1_dropShadow_72_165"/>
<feBlend mode="normal" in="SourceGraphic" in2="effect1_dropShadow_72_165" result="shape"/>
</filter>
</defs>
</svg>
