<svg width="192" height="192" viewBox="0 0 192 192" fill="none" xmlns="http://www.w3.org/2000/svg">
<circle cx="96" cy="96" r="96" fill="#272A2F"/>
<path d="M73.7097 112C62.3512 112 58.0553 101.333 57.3272 96C55.689 88.8276 60.0576 80 73.7097 80C87.3618 80 89 89.3793 89 93.2414C89 97.1034 87.9078 112 73.7097 112Z" stroke="#F3F3F3" stroke-width="2"/>
<path d="M121.28 111.688C132.691 110.714 136.102 99.7391 136.38 94.3735C137.417 87.1011 132.279 78.6981 118.564 79.8692C104.848 81.0404 103.999 90.5072 104.327 94.3474C104.655 98.1877 107.017 112.906 121.28 111.688Z" stroke="#F3F3F3" stroke-width="2"/>
<path d="M42.0413 85.3404C41.8198 75.7204 42.7786 54.6886 48.3859 47.0458C55.4092 37.473 82.3649 21.0749 101.349 22.0408C120.333 23.0068 143.657 45.0993 145.529 50.9436C146.892 55.1998 149.063 70.7559 149.397 77.7241M42.0413 85.3404C42.5201 82.0434 47.0468 76.2851 49.8463 73.6367C53.8143 69.8828 85.5626 48.3159 113.119 56.0662C136.603 62.6711 146.93 71.7966 149.397 77.7241M42.0413 85.3404C41.8415 86.7167 42.347 87.6641 43.9778 87.7775C47.4722 88.5873 52.6156 87.3224 57.624 81.7254C63.8844 74.7291 85.0714 61.2482 101.703 61.6191C118.334 61.9899 129.93 72.9083 136.986 79.6526C141.117 83.5997 142.933 83.6356 145.916 83.6947C146.05 83.6974 146.185 83.7 146.323 83.7031C149.477 83.7734 150.904 81.3457 149.397 77.7241M42.0413 85.3404C42.0418 85.3598 42.0422 85.3791 42.0427 85.3984" stroke="#F3F3F3" stroke-width="2"/>
<path d="M51.7928 130C54.5128 135.392 60.9272 147.397 64.8249 152.28C69.697 158.385 78.9836 168.583 87.9921 168.274" stroke="#F3F3F3" stroke-width="2" stroke-linecap="round"/>
</svg>
