<svg width="192" height="192" viewBox="0 0 192 192" fill="none" xmlns="http://www.w3.org/2000/svg">
<circle cx="96" cy="96" r="96" fill="#272A2F"/>
<path fill-rule="evenodd" clip-rule="evenodd" d="M101.191 27.9754C92.3314 27.5198 81.8021 31.1389 72.8019 35.8504C63.814 40.5554 55.998 46.5374 52.6667 51.1255C51.2607 53.062 50.2118 55.7405 49.4131 58.6893C48.6079 61.662 48.0273 65.0237 47.6149 68.4087C46.7973 75.12 46.6272 82.0391 46.7218 86.4376C46.6297 87.2132 46.6959 88.1253 47.2508 88.9024C47.8407 89.7286 48.7542 90.0901 49.7048 90.18C53.4814 91.0129 58.538 89.5187 63.2134 84.2392C65.8429 81.2698 71.7939 76.755 78.9813 73.0176C86.1703 69.2792 94.3426 66.4527 101.398 66.6117C115.592 66.9315 125.556 76.3444 131.882 82.454C133.787 84.2938 135.282 85.3455 136.747 85.9075C138.189 86.4602 139.485 86.4859 140.761 86.5112L140.847 86.5129L141.103 86.5181L141.207 86.5204C143.011 86.561 144.646 85.8577 145.478 84.287C146.232 82.8647 146.123 81.0997 145.448 79.3331C145.279 76.1121 144.725 71.1216 144.066 66.4563C143.396 61.7088 142.593 57.1184 141.941 55.0616C141.659 54.1703 141.036 53.1269 140.25 52.0435C139.443 50.9305 138.385 49.6691 137.131 48.327C134.621 45.6415 131.272 42.5759 127.446 39.6556C119.854 33.8603 110.119 28.4344 101.191 27.9754ZM54.1444 74.8969C52.8243 76.1589 51.1392 78.115 49.7197 80.1411C49.8256 76.6518 50.0769 72.6682 50.5522 68.7665C50.9543 65.4662 51.5132 62.254 52.2692 59.4629C53.0317 56.6479 53.9658 54.3726 55.0611 52.8641C57.9957 48.8224 65.3371 43.0981 74.1743 38.4719C82.9992 33.8522 92.9626 30.5152 101.039 30.9305C109.048 31.3423 118.186 36.3099 125.651 42.0077C129.353 44.8339 132.578 47.7896 134.969 50.3475C136.165 51.627 137.138 52.7928 137.855 53.7808C138.593 54.7984 138.986 55.5298 139.121 55.9557C139.685 57.7358 140.459 62.0758 141.136 66.8699C141.485 69.3438 141.802 71.8904 142.046 74.1972C140.442 72.4662 138.325 70.6713 135.652 68.8873C130.298 65.314 122.608 61.7123 112.021 58.7035C99.2569 55.0761 85.6527 58.3293 74.9313 62.7915C64.2144 67.2517 56.0793 73.0473 54.1444 74.8969ZM56.1891 77.0358C57.7944 75.5013 65.5916 69.8836 76.0682 65.5233C86.5403 61.165 99.3907 58.1904 111.212 61.5498C121.576 64.4953 128.968 67.984 134.009 71.3485C139.08 74.7324 141.67 77.9207 142.614 80.2146C143.198 81.6317 143.079 82.4951 142.863 82.9016C142.692 83.2256 142.283 83.5848 141.273 83.5621C141.148 83.5593 141.026 83.5568 140.907 83.5544L140.906 83.5544C139.549 83.5273 138.73 83.4986 137.807 83.1446C136.876 82.7875 135.717 82.0438 133.938 80.3254C127.673 74.2751 116.945 64.0022 101.464 63.6534C93.6818 63.4781 84.9841 66.5609 77.6162 70.3923C70.2467 74.2244 63.9539 78.9397 60.9981 82.2774C56.7829 87.0373 52.7154 87.8467 50.2685 87.2737L50.1531 87.2467L50.0348 87.2384C49.8246 87.2236 49.7105 87.188 49.6603 87.167C49.6479 87.1113 49.6318 86.9793 49.668 86.7277C49.7414 86.2163 49.993 85.5011 50.44 84.6197C50.8775 83.757 51.4606 82.8156 52.1214 81.8701C53.4474 79.9727 55.019 78.1544 56.1891 77.0358ZM63.0706 91.5171C65.762 88.33 70.2937 86.2454 76.7769 86.2454C83.3135 86.2454 87.2432 88.4912 89.485 91.4561C91.3457 93.917 91.9091 96.6982 92.0349 98.6365C93.1799 98.3165 94.5415 98.0635 95.9971 97.9524C97.9744 97.8015 100.229 97.9035 102.463 98.5124C102.603 96.7551 103.088 94.6313 104.349 92.6301C106.33 89.4853 110.055 86.9133 116.568 86.3571C123.027 85.8056 127.72 87.497 130.673 90.4437C133.592 93.3573 134.626 97.3201 134.126 100.965C133.979 103.575 133.091 107.463 130.867 110.862C128.591 114.34 124.894 117.324 119.253 117.806C115.789 118.102 112.958 117.432 110.675 116.135C108.404 114.845 106.765 112.984 105.586 111.028C103.515 107.59 102.786 103.722 102.54 101.632C100.459 100.906 98.2322 100.749 96.2223 100.903C94.4461 101.038 92.9452 101.407 91.9628 101.762C91.7678 103.955 91.2285 107.023 89.8174 109.893C88.8094 111.942 87.3344 113.935 85.1818 115.414C83.0172 116.901 80.2533 117.808 76.7769 117.808C71.1158 117.808 67.1778 115.15 64.6145 111.878C62.1095 108.681 60.8937 104.882 60.5253 102.295C59.7163 98.705 60.4093 94.6686 63.0706 91.5171ZM65.3314 93.4262C63.3236 95.8039 62.7759 98.8887 63.4234 101.694L63.4383 101.759L63.4474 101.825C63.7478 104.003 64.8013 107.319 66.9438 110.053C69.0492 112.741 72.18 114.849 76.7769 114.849C79.7118 114.849 81.8796 114.092 83.5063 112.975C85.145 111.849 86.3207 110.298 87.1621 108.587C88.8641 105.126 89.1062 101.201 89.1062 99.5611C89.1062 97.9994 88.7641 95.409 87.1247 93.2407C85.5443 91.1506 82.5697 89.2044 76.7769 89.2044C70.9308 89.2044 67.3252 91.0652 65.3314 93.4262ZM128.583 92.5382C130.785 94.7364 131.594 97.7635 131.187 100.614L131.178 100.68L131.174 100.746C131.06 102.942 130.293 106.335 128.391 109.242C126.522 112.099 123.581 114.466 119.001 114.857C116.077 115.107 113.853 114.537 112.137 113.562C110.408 112.58 109.105 111.134 108.121 109.501C106.131 106.198 105.555 102.307 105.416 100.674C105.283 99.1175 105.404 96.5073 106.853 94.2075C108.249 91.9905 111.048 89.7983 116.819 89.3054C122.644 88.8081 126.395 90.3554 128.583 92.5382ZM55.8984 123.362C55.5304 122.633 54.6406 122.34 53.9111 122.708C53.1815 123.076 52.8885 123.965 53.2565 124.695C55.9238 129.983 62.3176 141.969 66.2752 146.928C68.7037 149.97 72.2732 154.087 76.3979 157.416C80.4801 160.71 85.3458 163.43 90.3333 163.258C91.15 163.23 91.7892 162.545 91.7611 161.729C91.7331 160.912 91.0483 160.273 90.2317 160.301C86.3336 160.435 82.1767 158.277 78.2562 155.113C74.3782 151.983 70.9651 148.06 68.588 145.082C64.8567 140.407 58.5968 128.711 55.8984 123.362Z" fill="#F3F3F3"/>
</svg>
