<svg data-v-721acde5="" data-v-354d4871="" xmlns="http://www.w3.org/2000/svg" viewBox="0 0 36 36" class="ico_share_twitter"><g data-v-721acde5="" fill="none" fill-rule="evenodd"><g data-v-721acde5="" transform="translate(-723 -362) translate(723 362)"><circle fill="#eee" data-v-721acde5="" cx="18" cy="18" r="18"></circle> <g data-v-721acde5=""><path data-v-721acde5="" d="M0 0H18V18H0z" transform="translate(9 9)"></path> <path fill="#333" data-v-721acde5="" fill-rule="nonzero" d="M6.162 15.75c6.514 0 10.076-5.195 10.076-9.697 0-.149 0-.297-.008-.439.69-.48 1.293-1.081 1.77-1.767-.632.269-1.314.453-2.034.538.734-.425 1.292-1.089 1.557-1.888-.683.39-1.44.672-2.247.827-.647-.664-1.565-1.074-2.585-1.074-1.954 0-3.54 1.527-3.54 3.407 0 .268.03.53.095.777-2.944-.141-5.551-1.498-7.299-3.562-.301.502-.477 1.088-.477 1.71 0 1.18.624 2.227 1.579 2.835-.58-.014-1.124-.17-1.601-.424v.042c0 1.654 1.219 3.025 2.842 3.343-.294.078-.61.12-.933.12-.228 0-.448-.02-.668-.063.448 1.357 1.755 2.34 3.304 2.368-1.211.911-2.739 1.456-4.398 1.456-.287 0-.566-.014-.845-.05 1.55.976 3.415 1.541 5.412 1.541" transform="translate(9 9)" class="fill"></path></g></g></g></svg>