<svg data-v-baecd16e="" data-v-354d4871="" xmlns="http://www.w3.org/2000/svg" viewBox="0 0 36 36" class="ico_share_link"><g data-v-baecd16e="" fill="none" fill-rule="evenodd"><g data-v-baecd16e="" transform="translate(-765 -362) translate(765 362)"><circle fill="#eee" data-v-baecd16e="" cx="18" cy="18" r="18"></circle> <g data-v-baecd16e="">
<path data-v-baecd16e="" d="M0 0H18V18H0z" transform="translate(9 9)"></path> <g data-v-baecd16e="" stroke-linecap="round" stroke-width="1.227" class="stroke"><g data-v-baecd16e=""><path stroke="#333" data-v-baecd16e="" d="M6.717 11.106l-.887.886c-1.333 1.334-3.496 1.334-4.83 0-1.333-1.334-1.333-3.496 0-4.83l2.146-2.145c1.334-1.334 3.496-1.334 4.83 0" transform="translate(9 9) translate(2.25 2.25) translate(.035 .033)"></path> <path stroke="#333" data-v-baecd16e="" d="M6.276 1.887L7.162 1c1.334-1.333 3.496-1.333 4.83 0 1.334 1.334 1.334 3.497 0 4.83L9.846 7.976c-1.333 1.334-3.496 1.334-4.83 0" transform="translate(9 9) translate(2.25 2.25) translate(.035 .033)"></path></g></g></g></g></g></svg>